%TF.GenerationSoftware,KiCad,Pcbnew,9.0.1*%
%TF.CreationDate,2025-04-16T15:20:24-04:00*%
%TF.ProjectId,KiCad 9 6502 ROR Test Board V2.0T,4b694361-6420-4392-9036-35303220524f,rev?*%
%TF.SameCoordinates,Original*%
%TF.FileFunction,Soldermask,Bot*%
%TF.FilePolarity,Negative*%
%FSLAX46Y46*%
G04 Gerber Fmt 4.6, Leading zero omitted, Abs format (unit mm)*
G04 Created by KiCad (PCBNEW 9.0.1) date 2025-04-16 15:20:24*
%MOMM*%
%LPD*%
G01*
G04 APERTURE LIST*
G04 Aperture macros list*
%AMRoundRect*
0 Rectangle with rounded corners*
0 $1 Rounding radius*
0 $2 $3 $4 $5 $6 $7 $8 $9 X,Y pos of 4 corners*
0 Add a 4 corners polygon primitive as box body*
4,1,4,$2,$3,$4,$5,$6,$7,$8,$9,$2,$3,0*
0 Add four circle primitives for the rounded corners*
1,1,$1+$1,$2,$3*
1,1,$1+$1,$4,$5*
1,1,$1+$1,$6,$7*
1,1,$1+$1,$8,$9*
0 Add four rect primitives between the rounded corners*
20,1,$1+$1,$2,$3,$4,$5,0*
20,1,$1+$1,$4,$5,$6,$7,0*
20,1,$1+$1,$6,$7,$8,$9,0*
20,1,$1+$1,$8,$9,$2,$3,0*%
G04 Aperture macros list end*
%ADD10O,1.981200X1.981200*%
%ADD11RoundRect,0.050800X-0.450000X-0.800000X0.450000X-0.800000X0.450000X0.800000X-0.450000X0.800000X0*%
%ADD12O,1.001600X1.701600*%
%ADD13O,1.300000X1.300000*%
%ADD14O,1.752600X1.752600*%
%ADD15O,2.101600X2.101600*%
%ADD16C,0.762000*%
%ADD17O,6.601600X6.601600*%
%ADD18O,1.901600X1.901600*%
%ADD19RoundRect,0.050800X-1.000000X-0.750000X1.000000X-0.750000X1.000000X0.750000X-1.000000X0.750000X0*%
%ADD20O,2.101600X1.601600*%
G04 APERTURE END LIST*
D10*
%TO.C,R7*%
X156609000Y-116312000D03*
X156609000Y-106152000D03*
%TD*%
D11*
%TO.C,Q2*%
X155339000Y-100183000D03*
D12*
X156609000Y-100183000D03*
X157879000Y-100183000D03*
%TD*%
D13*
%TO.C,C1*%
X121557000Y-77196000D03*
X116477000Y-77196000D03*
%TD*%
D14*
%TO.C,LED1*%
X179469000Y-123170000D03*
X179469000Y-120630000D03*
%TD*%
D13*
%TO.C,C3*%
X154069000Y-69195000D03*
X159149000Y-69195000D03*
%TD*%
D15*
%TO.C,P1*%
X173464400Y-32484000D03*
X168455600Y-32484000D03*
%TD*%
D10*
%TO.C,R4*%
X163467000Y-41826500D03*
X163467000Y-51986500D03*
%TD*%
%TO.C,R2*%
X113302000Y-67036000D03*
X123462000Y-67036000D03*
%TD*%
D16*
%TO.C,U8*%
X181314900Y-181416100D03*
X182025000Y-179701300D03*
X182025000Y-183130800D03*
X183739800Y-178991100D03*
X183739800Y-183841000D03*
X185454600Y-179701300D03*
X185454600Y-183130800D03*
X186164700Y-181416100D03*
D17*
X183739800Y-181416100D03*
%TD*%
D18*
%TO.C,U1*%
X129050000Y-59416000D03*
X129050000Y-61956000D03*
X129050000Y-64496000D03*
X129050000Y-67036000D03*
X129050000Y-69576000D03*
X129050000Y-72116000D03*
X129050000Y-74656000D03*
X129050000Y-77196000D03*
X129050000Y-79736000D03*
X129050000Y-82276000D03*
X129050000Y-84816000D03*
X129050000Y-87356000D03*
X129050000Y-89896000D03*
X129050000Y-92436000D03*
X129050000Y-94976000D03*
X129050000Y-97516000D03*
X129050000Y-100056000D03*
X129050000Y-102596000D03*
X129050000Y-105136000D03*
X129050000Y-107676000D03*
X144290000Y-107676000D03*
X144290000Y-105136000D03*
X144290000Y-102596000D03*
X144290000Y-100056000D03*
X144290000Y-97516000D03*
X144290000Y-94976000D03*
X144290000Y-92436000D03*
X144290000Y-89896000D03*
X144290000Y-87356000D03*
X144290000Y-84816000D03*
X144290000Y-82276000D03*
X144290000Y-79736000D03*
X144290000Y-77196000D03*
X144290000Y-74656000D03*
X144290000Y-72116000D03*
X144290000Y-69576000D03*
X144290000Y-67036000D03*
X144290000Y-64496000D03*
X144290000Y-61956000D03*
X144290000Y-59416000D03*
%TD*%
D13*
%TO.C,C2*%
X116477000Y-160000000D03*
X121557000Y-160000000D03*
%TD*%
D16*
%TO.C,U7*%
X112575100Y-181416100D03*
X113285200Y-179701300D03*
X113285200Y-183130800D03*
X115000000Y-178991100D03*
X115000000Y-183841000D03*
X116714800Y-179701300D03*
X116714800Y-183130800D03*
X117424900Y-181416100D03*
D17*
X115000000Y-181416100D03*
%TD*%
D18*
%TO.C,U2*%
X144271900Y-160000000D03*
X144271900Y-157460000D03*
X144271900Y-154920000D03*
X144271900Y-152380000D03*
X144271900Y-149840000D03*
X144271900Y-147300000D03*
X144271900Y-144760000D03*
X144271900Y-142220000D03*
X144271900Y-139680000D03*
X144271900Y-137140000D03*
X144271900Y-134600000D03*
X144271900Y-132060000D03*
X144271900Y-129520000D03*
X144271900Y-126980000D03*
X129031900Y-126980000D03*
X129031900Y-129520000D03*
X129031900Y-132060000D03*
X129031900Y-134600000D03*
X129031900Y-137140000D03*
X129031900Y-139680000D03*
X129031900Y-142220000D03*
X129031900Y-144760000D03*
X129031900Y-147300000D03*
X129031900Y-149840000D03*
X129031900Y-152380000D03*
X129031900Y-154920000D03*
X129031900Y-157460000D03*
X129031900Y-160000000D03*
%TD*%
D10*
%TO.C,R1*%
X113302000Y-61956000D03*
X123462000Y-61956000D03*
%TD*%
D18*
%TO.C,RESET*%
X168709600Y-43655300D03*
X168709600Y-50157700D03*
X173210400Y-50157700D03*
X173210400Y-43655300D03*
%TD*%
D16*
%TO.C,U5*%
X112575100Y-31777200D03*
X113285200Y-30062400D03*
X113285200Y-33492000D03*
X115000000Y-29352300D03*
X115000000Y-34202100D03*
X116714800Y-30062400D03*
X116714800Y-33492000D03*
X117424900Y-31777200D03*
D17*
X115000000Y-31777200D03*
%TD*%
D19*
%TO.C,U4*%
X175659300Y-74656000D03*
D20*
X175659000Y-77196000D03*
X175659000Y-79736000D03*
X175659000Y-82276000D03*
X175659000Y-84816000D03*
X175659000Y-87356000D03*
X175659000Y-89896000D03*
X183279000Y-89896000D03*
X183279000Y-87356000D03*
X183279000Y-84816000D03*
X183279000Y-82276000D03*
X183279000Y-79736000D03*
X183279000Y-77196000D03*
X183279000Y-74656000D03*
%TD*%
D13*
%TO.C,C5*%
X173500000Y-55733000D03*
X168420000Y-55733000D03*
%TD*%
D16*
%TO.C,U6*%
X181314900Y-31777200D03*
X182025000Y-30062400D03*
X182025000Y-33492000D03*
X183739800Y-29352300D03*
X183739800Y-34202100D03*
X185454600Y-30062400D03*
X185454600Y-33492000D03*
X186164700Y-31777200D03*
D17*
X183739800Y-31777200D03*
%TD*%
D14*
%TO.C,LED2*%
X156609000Y-123170000D03*
X156609000Y-120630000D03*
%TD*%
D10*
%TO.C,R3*%
X113302000Y-72116000D03*
X123462000Y-72116000D03*
%TD*%
D13*
%TO.C,C4*%
X176929000Y-69068000D03*
X182009000Y-69068000D03*
%TD*%
D10*
%TO.C,R6*%
X179596000Y-106406000D03*
X179596000Y-116566000D03*
%TD*%
D13*
%TO.C,C6*%
X159530000Y-32746000D03*
X159530000Y-37826000D03*
%TD*%
D19*
%TO.C,U3*%
X152736000Y-74656000D03*
D20*
X152736000Y-77196000D03*
X152736000Y-79736000D03*
X152736000Y-82276000D03*
X152736000Y-84816000D03*
X152736000Y-87356000D03*
X152736000Y-89896000D03*
X160736000Y-89896000D03*
X160736000Y-87356000D03*
X160736000Y-84816000D03*
X160736000Y-82276000D03*
X160736000Y-79736000D03*
X160736000Y-77196000D03*
X160736000Y-74656000D03*
%TD*%
D18*
%TO.C,OSC1*%
X152037000Y-32365000D03*
X136797000Y-32365000D03*
X136797000Y-39985000D03*
X152037000Y-39985000D03*
%TD*%
D10*
%TO.C,R5*%
X178961000Y-41826500D03*
X178961000Y-51986500D03*
%TD*%
D11*
%TO.C,Q1*%
X178199000Y-100310000D03*
D12*
X179469000Y-100310000D03*
X180739000Y-100310000D03*
%TD*%
M02*
