M48
; DRILL file {KiCad 9.0.1} date 2025-04-16T15:20:27-0400
; FORMAT={-:-/ absolute / metric / decimal}
; #@! TF.CreationDate,2025-04-16T15:20:27-04:00
; #@! TF.GenerationSoftware,Kicad,Pcbnew,9.0.1
; #@! TF.FileFunction,Plated,1,2,PTH
FMAT,2
METRIC
; #@! TA.AperFunction,Plated,PTH,ComponentDrill
T1C0.635
; #@! TA.AperFunction,Plated,PTH,ComponentDrill
T2C0.700
; #@! TA.AperFunction,Plated,PTH,ComponentDrill
T3C0.899
; #@! TA.AperFunction,Plated,PTH,ComponentDrill
T4C0.900
; #@! TA.AperFunction,Plated,PTH,ComponentDrill
T5C0.965
; #@! TA.AperFunction,Plated,PTH,ComponentDrill
T6C1.000
; #@! TA.AperFunction,Plated,PTH,ComponentDrill
T7C1.100
; #@! TA.AperFunction,Plated,PTH,ComponentDrill
T8C1.300
; #@! TA.AperFunction,Plated,PTH,ComponentDrill
T9C3.200
%
G90
G05
T1
X112.575Y-31.777
X112.575Y-181.416
X113.285Y-30.062
X113.285Y-33.492
X113.285Y-179.701
X113.285Y-183.131
X115.0Y-29.352
X115.0Y-34.202
X115.0Y-178.991
X115.0Y-183.841
X116.715Y-30.062
X116.715Y-33.492
X116.715Y-179.701
X116.715Y-183.131
X117.425Y-31.777
X117.425Y-181.416
X181.315Y-31.777
X181.315Y-181.416
X182.025Y-30.062
X182.025Y-33.492
X182.025Y-179.701
X182.025Y-183.131
X183.74Y-29.352
X183.74Y-34.202
X183.74Y-178.991
X183.74Y-183.841
X185.455Y-30.062
X185.455Y-33.492
X185.455Y-179.701
X185.455Y-183.131
X186.165Y-31.777
X186.165Y-181.416
T2
X116.477Y-77.196
X116.477Y-160.0
X121.557Y-77.196
X121.557Y-160.0
X154.069Y-69.195
X155.339Y-100.183
X156.609Y-100.183
X157.879Y-100.183
X159.149Y-69.195
X159.53Y-32.746
X159.53Y-37.826
X168.42Y-55.733
X173.5Y-55.733
X176.929Y-69.068
X178.199Y-100.31
X179.469Y-100.31
X180.739Y-100.31
X182.009Y-69.068
T3
X113.302Y-61.956
X113.302Y-67.036
X113.302Y-72.116
X123.462Y-61.956
X123.462Y-67.036
X123.462Y-72.116
X156.609Y-106.152
X156.609Y-116.312
X163.467Y-41.826
X163.467Y-51.986
X178.961Y-41.826
X178.961Y-51.986
X179.596Y-106.406
X179.596Y-116.566
T4
X136.797Y-32.365
X136.797Y-39.985
X152.037Y-32.365
X152.037Y-39.985
T5
X156.609Y-120.63
X156.609Y-123.17
X179.469Y-120.63
X179.469Y-123.17
T6
X129.032Y-126.98
X129.032Y-129.52
X129.032Y-132.06
X129.032Y-134.6
X129.032Y-137.14
X129.032Y-139.68
X129.032Y-142.22
X129.032Y-144.76
X129.032Y-147.3
X129.032Y-149.84
X129.032Y-152.38
X129.032Y-154.92
X129.032Y-157.46
X129.032Y-160.0
X129.05Y-59.416
X129.05Y-61.956
X129.05Y-64.496
X129.05Y-67.036
X129.05Y-69.576
X129.05Y-72.116
X129.05Y-74.656
X129.05Y-77.196
X129.05Y-79.736
X129.05Y-82.276
X129.05Y-84.816
X129.05Y-87.356
X129.05Y-89.896
X129.05Y-92.436
X129.05Y-94.976
X129.05Y-97.516
X129.05Y-100.056
X129.05Y-102.596
X129.05Y-105.136
X129.05Y-107.676
X144.272Y-126.98
X144.272Y-129.52
X144.272Y-132.06
X144.272Y-134.6
X144.272Y-137.14
X144.272Y-139.68
X144.272Y-142.22
X144.272Y-144.76
X144.272Y-147.3
X144.272Y-149.84
X144.272Y-152.38
X144.272Y-154.92
X144.272Y-157.46
X144.272Y-160.0
X144.29Y-59.416
X144.29Y-61.956
X144.29Y-64.496
X144.29Y-67.036
X144.29Y-69.576
X144.29Y-72.116
X144.29Y-74.656
X144.29Y-77.196
X144.29Y-79.736
X144.29Y-82.276
X144.29Y-84.816
X144.29Y-87.356
X144.29Y-89.896
X144.29Y-92.436
X144.29Y-94.976
X144.29Y-97.516
X144.29Y-100.056
X144.29Y-102.596
X144.29Y-105.136
X144.29Y-107.676
X152.736Y-74.656
X152.736Y-77.196
X152.736Y-79.736
X152.736Y-82.276
X152.736Y-84.816
X152.736Y-87.356
X152.736Y-89.896
X160.736Y-74.656
X160.736Y-77.196
X160.736Y-79.736
X160.736Y-82.276
X160.736Y-84.816
X160.736Y-87.356
X160.736Y-89.896
X175.659Y-77.196
X175.659Y-79.736
X175.659Y-82.276
X175.659Y-84.816
X175.659Y-87.356
X175.659Y-89.896
X175.659Y-74.656
X183.279Y-74.656
X183.279Y-77.196
X183.279Y-79.736
X183.279Y-82.276
X183.279Y-84.816
X183.279Y-87.356
X183.279Y-89.896
T7
X168.71Y-43.655
X168.71Y-50.158
X173.21Y-43.655
X173.21Y-50.158
T8
X168.456Y-32.484
X173.464Y-32.484
T9
X115.0Y-31.777
X115.0Y-181.416
X183.74Y-31.777
X183.74Y-181.416
M30
