%TF.GenerationSoftware,KiCad,Pcbnew,9.0.1*%
%TF.CreationDate,2025-04-16T15:15:49-04:00*%
%TF.ProjectId,KiCad 9 6502 ROR Test Board V2.0S,4b694361-6420-4392-9036-35303220524f,rev?*%
%TF.SameCoordinates,Original*%
%TF.FileFunction,Soldermask,Top*%
%TF.FilePolarity,Negative*%
%FSLAX46Y46*%
G04 Gerber Fmt 4.6, Leading zero omitted, Abs format (unit mm)*
G04 Created by KiCad (PCBNEW 9.0.1) date 2025-04-16 15:15:49*
%MOMM*%
%LPD*%
G01*
G04 APERTURE LIST*
G04 Aperture macros list*
%AMRoundRect*
0 Rectangle with rounded corners*
0 $1 Rounding radius*
0 $2 $3 $4 $5 $6 $7 $8 $9 X,Y pos of 4 corners*
0 Add a 4 corners polygon primitive as box body*
4,1,4,$2,$3,$4,$5,$6,$7,$8,$9,$2,$3,0*
0 Add four circle primitives for the rounded corners*
1,1,$1+$1,$2,$3*
1,1,$1+$1,$4,$5*
1,1,$1+$1,$6,$7*
1,1,$1+$1,$8,$9*
0 Add four rect primitives between the rounded corners*
20,1,$1+$1,$2,$3,$4,$5,0*
20,1,$1+$1,$4,$5,$6,$7,0*
20,1,$1+$1,$6,$7,$8,$9,0*
20,1,$1+$1,$8,$9,$2,$3,0*%
G04 Aperture macros list end*
%ADD10O,2.101600X2.101600*%
%ADD11RoundRect,0.050800X-0.300000X-0.400000X0.300000X-0.400000X0.300000X0.400000X-0.300000X0.400000X0*%
%ADD12RoundRect,0.050800X0.400000X0.450000X-0.400000X0.450000X-0.400000X-0.450000X0.400000X-0.450000X0*%
%ADD13RoundRect,0.050800X-0.450000X0.400000X-0.450000X-0.400000X0.450000X-0.400000X0.450000X0.400000X0*%
%ADD14RoundRect,0.050800X-0.403250X-0.432000X0.403250X-0.432000X0.403250X0.432000X-0.403250X0.432000X0*%
%ADD15RoundRect,0.050800X0.449950X-0.500000X0.449950X0.500000X-0.449950X0.500000X-0.449950X-0.500000X0*%
%ADD16RoundRect,0.050800X0.450000X-0.400000X0.450000X0.400000X-0.450000X0.400000X-0.450000X-0.400000X0*%
%ADD17O,2.139600X0.675600*%
%ADD18RoundRect,0.050800X-0.400000X-0.450000X0.400000X-0.450000X0.400000X0.450000X-0.400000X0.450000X0*%
%ADD19RoundRect,0.050800X-0.500000X-0.400000X0.500000X-0.400000X0.500000X0.400000X-0.500000X0.400000X0*%
%ADD20O,1.901600X1.901600*%
%ADD21C,0.762000*%
%ADD22O,6.601600X6.601600*%
%ADD23RoundRect,0.050800X-0.700000X0.750000X-0.700000X-0.750000X0.700000X-0.750000X0.700000X0.750000X0*%
G04 APERTURE END LIST*
D10*
%TO.C,P1*%
X126291000Y-84404600D03*
X126291000Y-89413400D03*
%TD*%
D11*
%TO.C,OSC1*%
X143063000Y-42332000D03*
X144363000Y-42332000D03*
X143713000Y-40432100D03*
%TD*%
D12*
%TO.C,C4*%
X172973000Y-61382000D03*
X171573000Y-61382000D03*
%TD*%
D13*
%TO.C,C1*%
X126807000Y-74017000D03*
X126807000Y-75417000D03*
%TD*%
D14*
%TO.C,R6*%
X165550600Y-78908000D03*
X167057400Y-78908000D03*
%TD*%
D15*
%TO.C,LED2*%
X171980100Y-85258000D03*
X170280100Y-85258000D03*
%TD*%
D16*
%TO.C,C2*%
X127950000Y-158221000D03*
X127950000Y-156821000D03*
%TD*%
D17*
%TO.C,U4*%
X169503900Y-63414000D03*
X169503900Y-64684000D03*
X169503900Y-65954000D03*
X169503900Y-67224000D03*
X169503900Y-68494000D03*
X169503900Y-69764000D03*
X169503900Y-71034000D03*
X175042100Y-71034000D03*
X175042100Y-69764000D03*
X175042100Y-68494000D03*
X175042100Y-67224000D03*
X175042100Y-65954000D03*
X175042100Y-64684000D03*
X175042100Y-63414000D03*
%TD*%
D15*
%TO.C,LED1*%
X171980100Y-78908000D03*
X170280100Y-78908000D03*
%TD*%
D18*
%TO.C,C3*%
X160651000Y-61255000D03*
X162051000Y-61255000D03*
%TD*%
D13*
%TO.C,C6*%
X140269000Y-40616000D03*
X140269000Y-42016000D03*
%TD*%
D19*
%TO.C,Q2*%
X160201100Y-84308000D03*
X160200900Y-86208000D03*
X162501100Y-85258000D03*
%TD*%
D20*
%TO.C,U2*%
X151699000Y-156759000D03*
X151699000Y-154219000D03*
X151699000Y-151679000D03*
X151699000Y-149139000D03*
X151699000Y-146599000D03*
X151699000Y-144059000D03*
X151699000Y-141519000D03*
X151699000Y-138979000D03*
X151699000Y-136439000D03*
X151699000Y-133899000D03*
X151699000Y-131359000D03*
X151699000Y-128819000D03*
X151699000Y-126279000D03*
X151699000Y-123739000D03*
X136459000Y-123739000D03*
X136459000Y-126279000D03*
X136459000Y-128819000D03*
X136459000Y-131359000D03*
X136459000Y-133899000D03*
X136459000Y-136439000D03*
X136459000Y-138979000D03*
X136459000Y-141519000D03*
X136459000Y-144059000D03*
X136459000Y-146599000D03*
X136459000Y-149139000D03*
X136459000Y-151679000D03*
X136459000Y-154219000D03*
X136459000Y-156759000D03*
%TD*%
D21*
%TO.C,U7*%
X124682800Y-178175000D03*
X125393000Y-176460200D03*
X125393000Y-179889800D03*
X127107700Y-175750100D03*
X127107700Y-180599900D03*
X128822500Y-176460200D03*
X128822500Y-179889800D03*
X129532700Y-178175000D03*
D22*
X127107700Y-178175000D03*
%TD*%
D21*
%TO.C,U5*%
X124682800Y-34759200D03*
X125393000Y-33044500D03*
X125393000Y-36474000D03*
X127107700Y-32334300D03*
X127107700Y-37184200D03*
X128822500Y-33044500D03*
X128822500Y-36474000D03*
X129532700Y-34759200D03*
D22*
X127107700Y-34759200D03*
%TD*%
D14*
%TO.C,R2*%
X126815600Y-63795000D03*
X128322400Y-63795000D03*
%TD*%
D20*
%TO.C,U1*%
X136459000Y-56175000D03*
X136459000Y-58715000D03*
X136459000Y-61255000D03*
X136459000Y-63795000D03*
X136459000Y-66335000D03*
X136459000Y-68875000D03*
X136459000Y-71415000D03*
X136459000Y-73955000D03*
X136459000Y-76495000D03*
X136459000Y-79035000D03*
X136459000Y-81575000D03*
X136459000Y-84115000D03*
X136459000Y-86655000D03*
X136459000Y-89195000D03*
X136459000Y-91735000D03*
X136459000Y-94275000D03*
X136459000Y-96815000D03*
X136459000Y-99355000D03*
X136459000Y-101895000D03*
X136459000Y-104435000D03*
X151699000Y-104435000D03*
X151699000Y-101895000D03*
X151699000Y-99355000D03*
X151699000Y-96815000D03*
X151699000Y-94275000D03*
X151699000Y-91735000D03*
X151699000Y-89195000D03*
X151699000Y-86655000D03*
X151699000Y-84115000D03*
X151699000Y-81575000D03*
X151699000Y-79035000D03*
X151699000Y-76495000D03*
X151699000Y-73955000D03*
X151699000Y-71415000D03*
X151699000Y-68875000D03*
X151699000Y-66335000D03*
X151699000Y-63795000D03*
X151699000Y-61255000D03*
X151699000Y-58715000D03*
X151699000Y-56175000D03*
%TD*%
D14*
%TO.C,R4*%
X167709600Y-48936000D03*
X169216400Y-48936000D03*
%TD*%
%TO.C,R5*%
X158311600Y-57445000D03*
X159818400Y-57445000D03*
%TD*%
%TO.C,R7*%
X165550600Y-85258000D03*
X167057400Y-85258000D03*
%TD*%
D23*
%TO.C,RESET*%
X164896800Y-48936000D03*
X157297200Y-48936000D03*
%TD*%
D21*
%TO.C,U8*%
X170308800Y-178175000D03*
X171019000Y-176460200D03*
X171019000Y-179889800D03*
X172733800Y-175750100D03*
X172733800Y-180599900D03*
X174448500Y-176460200D03*
X174448500Y-179889800D03*
X175158700Y-178175000D03*
D22*
X172733800Y-178175000D03*
%TD*%
D21*
%TO.C,U6*%
X170308800Y-34759200D03*
X171019000Y-33044500D03*
X171019000Y-36474000D03*
X172733800Y-32334300D03*
X172733800Y-37184200D03*
X174448500Y-33044500D03*
X174448500Y-36474000D03*
X175158700Y-34759200D03*
D22*
X172733800Y-34759200D03*
%TD*%
D14*
%TO.C,R1*%
X126815600Y-58715000D03*
X128322400Y-58715000D03*
%TD*%
%TO.C,R3*%
X126815600Y-68875000D03*
X128322400Y-68875000D03*
%TD*%
D19*
%TO.C,Q1*%
X160455100Y-77958000D03*
X160454900Y-79858000D03*
X162755100Y-78908000D03*
%TD*%
D12*
%TO.C,C5*%
X164845000Y-57445000D03*
X163445000Y-57445000D03*
%TD*%
D17*
%TO.C,U3*%
X158581900Y-63414000D03*
X158581900Y-64684000D03*
X158581900Y-65954000D03*
X158581900Y-67224000D03*
X158581900Y-68494000D03*
X158581900Y-69764000D03*
X158581900Y-71034000D03*
X164120100Y-71034000D03*
X164120100Y-69764000D03*
X164120100Y-68494000D03*
X164120100Y-67224000D03*
X164120100Y-65954000D03*
X164120100Y-64684000D03*
X164120100Y-63414000D03*
%TD*%
M02*
