%TF.GenerationSoftware,KiCad,Pcbnew,9.0.1*%
%TF.CreationDate,2025-04-16T15:15:48-04:00*%
%TF.ProjectId,KiCad 9 6502 ROR Test Board V2.0S,4b694361-6420-4392-9036-35303220524f,rev?*%
%TF.SameCoordinates,Original*%
%TF.FileFunction,Paste,Top*%
%TF.FilePolarity,Positive*%
%FSLAX46Y46*%
G04 Gerber Fmt 4.6, Leading zero omitted, Abs format (unit mm)*
G04 Created by KiCad (PCBNEW 9.0.1) date 2025-04-16 15:15:48*
%MOMM*%
%LPD*%
G01*
G04 APERTURE LIST*
%ADD10R,0.600000X0.800000*%
%ADD11R,0.800000X0.900000*%
%ADD12R,0.900000X0.800000*%
%ADD13R,0.806500X0.864000*%
%ADD14R,0.899900X1.000000*%
%ADD15O,2.038000X0.574000*%
%ADD16R,1.000000X0.800000*%
%ADD17R,1.400000X1.500000*%
G04 APERTURE END LIST*
D10*
%TO.C,OSC1*%
X143063000Y-42332000D03*
X144363000Y-42332000D03*
X143713000Y-40432100D03*
%TD*%
D11*
%TO.C,C4*%
X172973000Y-61382000D03*
X171573000Y-61382000D03*
%TD*%
D12*
%TO.C,C1*%
X126807000Y-74017000D03*
X126807000Y-75417000D03*
%TD*%
D13*
%TO.C,R6*%
X165550600Y-78908000D03*
X167057400Y-78908000D03*
%TD*%
D14*
%TO.C,LED2*%
X171980100Y-85258000D03*
X170280100Y-85258000D03*
%TD*%
D12*
%TO.C,C2*%
X127950000Y-158221000D03*
X127950000Y-156821000D03*
%TD*%
D15*
%TO.C,U4*%
X169503900Y-63414000D03*
X169503900Y-64684000D03*
X169503900Y-65954000D03*
X169503900Y-67224000D03*
X169503900Y-68494000D03*
X169503900Y-69764000D03*
X169503900Y-71034000D03*
X175042100Y-71034000D03*
X175042100Y-69764000D03*
X175042100Y-68494000D03*
X175042100Y-67224000D03*
X175042100Y-65954000D03*
X175042100Y-64684000D03*
X175042100Y-63414000D03*
%TD*%
D14*
%TO.C,LED1*%
X171980100Y-78908000D03*
X170280100Y-78908000D03*
%TD*%
D11*
%TO.C,C3*%
X160651000Y-61255000D03*
X162051000Y-61255000D03*
%TD*%
D12*
%TO.C,C6*%
X140269000Y-40616000D03*
X140269000Y-42016000D03*
%TD*%
D16*
%TO.C,Q2*%
X160201100Y-84308000D03*
X160200900Y-86208000D03*
X162501100Y-85258000D03*
%TD*%
D13*
%TO.C,R2*%
X126815600Y-63795000D03*
X128322400Y-63795000D03*
%TD*%
%TO.C,R4*%
X167709600Y-48936000D03*
X169216400Y-48936000D03*
%TD*%
%TO.C,R5*%
X158311600Y-57445000D03*
X159818400Y-57445000D03*
%TD*%
%TO.C,R7*%
X165550600Y-85258000D03*
X167057400Y-85258000D03*
%TD*%
D17*
%TO.C,RESET*%
X164896800Y-48936000D03*
X157297200Y-48936000D03*
%TD*%
D13*
%TO.C,R1*%
X126815600Y-58715000D03*
X128322400Y-58715000D03*
%TD*%
%TO.C,R3*%
X126815600Y-68875000D03*
X128322400Y-68875000D03*
%TD*%
D16*
%TO.C,Q1*%
X160455100Y-77958000D03*
X160454900Y-79858000D03*
X162755100Y-78908000D03*
%TD*%
D11*
%TO.C,C5*%
X164845000Y-57445000D03*
X163445000Y-57445000D03*
%TD*%
D15*
%TO.C,U3*%
X158581900Y-63414000D03*
X158581900Y-64684000D03*
X158581900Y-65954000D03*
X158581900Y-67224000D03*
X158581900Y-68494000D03*
X158581900Y-69764000D03*
X158581900Y-71034000D03*
X164120100Y-71034000D03*
X164120100Y-69764000D03*
X164120100Y-68494000D03*
X164120100Y-67224000D03*
X164120100Y-65954000D03*
X164120100Y-64684000D03*
X164120100Y-63414000D03*
%TD*%
M02*
