M48
; DRILL file {KiCad 9.0.1} date 2025-04-16T15:15:55-0400
; FORMAT={-:-/ absolute / metric / decimal}
; #@! TF.CreationDate,2025-04-16T15:15:55-04:00
; #@! TF.GenerationSoftware,Kicad,Pcbnew,9.0.1
; #@! TF.FileFunction,Plated,1,2,PTH
FMAT,2
METRIC
; #@! TA.AperFunction,Plated,PTH,ViaDrill
T1C0.310
; #@! TA.AperFunction,Plated,PTH,ComponentDrill
T2C0.635
; #@! TA.AperFunction,Plated,PTH,ComponentDrill
T3C1.000
; #@! TA.AperFunction,Plated,PTH,ComponentDrill
T4C1.300
; #@! TA.AperFunction,Plated,PTH,ComponentDrill
T5C3.200
%
G90
G05
T1
X156.652Y-65.954
X156.652Y-67.224
X165.669Y-71.034
X167.955Y-65.954
T2
X124.683Y-34.759
X124.683Y-178.175
X125.393Y-33.044
X125.393Y-36.474
X125.393Y-176.46
X125.393Y-179.89
X127.108Y-32.334
X127.108Y-37.184
X127.108Y-175.75
X127.108Y-180.6
X128.822Y-33.044
X128.822Y-36.474
X128.822Y-176.46
X128.822Y-179.89
X129.533Y-34.759
X129.533Y-178.175
X170.309Y-34.759
X170.309Y-178.175
X171.019Y-33.044
X171.019Y-36.474
X171.019Y-176.46
X171.019Y-179.89
X172.734Y-32.334
X172.734Y-37.184
X172.734Y-175.75
X172.734Y-180.6
X174.448Y-33.044
X174.448Y-36.474
X174.448Y-176.46
X174.448Y-179.89
X175.159Y-34.759
X175.159Y-178.175
T3
X136.459Y-56.175
X136.459Y-58.715
X136.459Y-61.255
X136.459Y-63.795
X136.459Y-66.335
X136.459Y-68.875
X136.459Y-71.415
X136.459Y-73.955
X136.459Y-76.495
X136.459Y-79.035
X136.459Y-81.575
X136.459Y-84.115
X136.459Y-86.655
X136.459Y-89.195
X136.459Y-91.735
X136.459Y-94.275
X136.459Y-96.815
X136.459Y-99.355
X136.459Y-101.895
X136.459Y-104.435
X136.459Y-123.739
X136.459Y-126.279
X136.459Y-128.819
X136.459Y-131.359
X136.459Y-133.899
X136.459Y-136.439
X136.459Y-138.979
X136.459Y-141.519
X136.459Y-144.059
X136.459Y-146.599
X136.459Y-149.139
X136.459Y-151.679
X136.459Y-154.219
X136.459Y-156.759
X151.699Y-56.175
X151.699Y-58.715
X151.699Y-61.255
X151.699Y-63.795
X151.699Y-66.335
X151.699Y-68.875
X151.699Y-71.415
X151.699Y-73.955
X151.699Y-76.495
X151.699Y-79.035
X151.699Y-81.575
X151.699Y-84.115
X151.699Y-86.655
X151.699Y-89.195
X151.699Y-91.735
X151.699Y-94.275
X151.699Y-96.815
X151.699Y-99.355
X151.699Y-101.895
X151.699Y-104.435
X151.699Y-123.739
X151.699Y-126.279
X151.699Y-128.819
X151.699Y-131.359
X151.699Y-133.899
X151.699Y-136.439
X151.699Y-138.979
X151.699Y-141.519
X151.699Y-144.059
X151.699Y-146.599
X151.699Y-149.139
X151.699Y-151.679
X151.699Y-154.219
X151.699Y-156.759
T4
X126.291Y-84.405
X126.291Y-89.413
T5
X127.108Y-34.759
X127.108Y-178.175
X172.734Y-34.759
X172.734Y-178.175
M30
