%TF.GenerationSoftware,KiCad,Pcbnew,9.0.1*%
%TF.CreationDate,2025-04-16T15:15:49-04:00*%
%TF.ProjectId,KiCad 9 6502 ROR Test Board V2.0S,4b694361-6420-4392-9036-35303220524f,rev?*%
%TF.SameCoordinates,Original*%
%TF.FileFunction,Legend,Bot*%
%TF.FilePolarity,Positive*%
%FSLAX46Y46*%
G04 Gerber Fmt 4.6, Leading zero omitted, Abs format (unit mm)*
G04 Created by KiCad (PCBNEW 9.0.1) date 2025-04-16 15:15:49*
%MOMM*%
%LPD*%
G01*
G04 APERTURE LIST*
%ADD10C,0.203200*%
%ADD11C,0.150000*%
G04 APERTURE END LIST*
D10*
X150066744Y-144397718D02*
X149495316Y-144397718D01*
X150181030Y-144740575D02*
X149781030Y-143540575D01*
X149781030Y-143540575D02*
X149381030Y-144740575D01*
X148466745Y-143940575D02*
X148466745Y-144740575D01*
X148752459Y-143483433D02*
X149038173Y-144340575D01*
X149038173Y-144340575D02*
X148295316Y-144340575D01*
X139906744Y-76833718D02*
X139335316Y-76833718D01*
X140021030Y-77176575D02*
X139621030Y-75976575D01*
X139621030Y-75976575D02*
X139221030Y-77176575D01*
X138592459Y-75976575D02*
X138478173Y-75976575D01*
X138478173Y-75976575D02*
X138363887Y-76033718D01*
X138363887Y-76033718D02*
X138306745Y-76090861D01*
X138306745Y-76090861D02*
X138249602Y-76205147D01*
X138249602Y-76205147D02*
X138192459Y-76433718D01*
X138192459Y-76433718D02*
X138192459Y-76719433D01*
X138192459Y-76719433D02*
X138249602Y-76948004D01*
X138249602Y-76948004D02*
X138306745Y-77062290D01*
X138306745Y-77062290D02*
X138363887Y-77119433D01*
X138363887Y-77119433D02*
X138478173Y-77176575D01*
X138478173Y-77176575D02*
X138592459Y-77176575D01*
X138592459Y-77176575D02*
X138706745Y-77119433D01*
X138706745Y-77119433D02*
X138763887Y-77062290D01*
X138763887Y-77062290D02*
X138821030Y-76948004D01*
X138821030Y-76948004D02*
X138878173Y-76719433D01*
X138878173Y-76719433D02*
X138878173Y-76433718D01*
X138878173Y-76433718D02*
X138821030Y-76205147D01*
X138821030Y-76205147D02*
X138763887Y-76090861D01*
X138763887Y-76090861D02*
X138706745Y-76033718D01*
X138706745Y-76033718D02*
X138592459Y-75976575D01*
X139906744Y-92073718D02*
X139335316Y-92073718D01*
X140021030Y-92416575D02*
X139621030Y-91216575D01*
X139621030Y-91216575D02*
X139221030Y-92416575D01*
X138306745Y-91216575D02*
X138535316Y-91216575D01*
X138535316Y-91216575D02*
X138649602Y-91273718D01*
X138649602Y-91273718D02*
X138706745Y-91330861D01*
X138706745Y-91330861D02*
X138821030Y-91502290D01*
X138821030Y-91502290D02*
X138878173Y-91730861D01*
X138878173Y-91730861D02*
X138878173Y-92188004D01*
X138878173Y-92188004D02*
X138821030Y-92302290D01*
X138821030Y-92302290D02*
X138763887Y-92359433D01*
X138763887Y-92359433D02*
X138649602Y-92416575D01*
X138649602Y-92416575D02*
X138421030Y-92416575D01*
X138421030Y-92416575D02*
X138306745Y-92359433D01*
X138306745Y-92359433D02*
X138249602Y-92302290D01*
X138249602Y-92302290D02*
X138192459Y-92188004D01*
X138192459Y-92188004D02*
X138192459Y-91902290D01*
X138192459Y-91902290D02*
X138249602Y-91788004D01*
X138249602Y-91788004D02*
X138306745Y-91730861D01*
X138306745Y-91730861D02*
X138421030Y-91673718D01*
X138421030Y-91673718D02*
X138649602Y-91673718D01*
X138649602Y-91673718D02*
X138763887Y-91730861D01*
X138763887Y-91730861D02*
X138821030Y-91788004D01*
X138821030Y-91788004D02*
X138878173Y-91902290D01*
X150009601Y-59396575D02*
X150009601Y-58196575D01*
X150009601Y-58196575D02*
X149552458Y-58196575D01*
X149552458Y-58196575D02*
X149438173Y-58253718D01*
X149438173Y-58253718D02*
X149381030Y-58310861D01*
X149381030Y-58310861D02*
X149323887Y-58425147D01*
X149323887Y-58425147D02*
X149323887Y-58596575D01*
X149323887Y-58596575D02*
X149381030Y-58710861D01*
X149381030Y-58710861D02*
X149438173Y-58768004D01*
X149438173Y-58768004D02*
X149552458Y-58825147D01*
X149552458Y-58825147D02*
X150009601Y-58825147D01*
X148809601Y-59396575D02*
X148809601Y-58196575D01*
X148809601Y-58768004D02*
X148123887Y-58768004D01*
X148123887Y-59396575D02*
X148123887Y-58196575D01*
X147552458Y-59396575D02*
X147552458Y-58196575D01*
X146123886Y-58310861D02*
X146066743Y-58253718D01*
X146066743Y-58253718D02*
X145952458Y-58196575D01*
X145952458Y-58196575D02*
X145666743Y-58196575D01*
X145666743Y-58196575D02*
X145552458Y-58253718D01*
X145552458Y-58253718D02*
X145495315Y-58310861D01*
X145495315Y-58310861D02*
X145438172Y-58425147D01*
X145438172Y-58425147D02*
X145438172Y-58539433D01*
X145438172Y-58539433D02*
X145495315Y-58710861D01*
X145495315Y-58710861D02*
X146181029Y-59396575D01*
X146181029Y-59396575D02*
X145438172Y-59396575D01*
X150009601Y-69556575D02*
X150009601Y-68356575D01*
X150009601Y-68356575D02*
X149323887Y-69556575D01*
X149323887Y-69556575D02*
X149323887Y-68356575D01*
X148066744Y-69442290D02*
X148123887Y-69499433D01*
X148123887Y-69499433D02*
X148295315Y-69556575D01*
X148295315Y-69556575D02*
X148409601Y-69556575D01*
X148409601Y-69556575D02*
X148581030Y-69499433D01*
X148581030Y-69499433D02*
X148695315Y-69385147D01*
X148695315Y-69385147D02*
X148752458Y-69270861D01*
X148752458Y-69270861D02*
X148809601Y-69042290D01*
X148809601Y-69042290D02*
X148809601Y-68870861D01*
X148809601Y-68870861D02*
X148752458Y-68642290D01*
X148752458Y-68642290D02*
X148695315Y-68528004D01*
X148695315Y-68528004D02*
X148581030Y-68413718D01*
X148581030Y-68413718D02*
X148409601Y-68356575D01*
X148409601Y-68356575D02*
X148295315Y-68356575D01*
X148295315Y-68356575D02*
X148123887Y-68413718D01*
X148123887Y-68413718D02*
X148066744Y-68470861D01*
X150181030Y-56399433D02*
X150123887Y-56342290D01*
X150123887Y-56342290D02*
X150009601Y-56285147D01*
X150009601Y-56285147D02*
X149781030Y-56399433D01*
X149781030Y-56399433D02*
X149666744Y-56342290D01*
X149666744Y-56342290D02*
X149609601Y-56285147D01*
X148466744Y-56856575D02*
X148866744Y-56285147D01*
X149152458Y-56856575D02*
X149152458Y-55656575D01*
X149152458Y-55656575D02*
X148695315Y-55656575D01*
X148695315Y-55656575D02*
X148581030Y-55713718D01*
X148581030Y-55713718D02*
X148523887Y-55770861D01*
X148523887Y-55770861D02*
X148466744Y-55885147D01*
X148466744Y-55885147D02*
X148466744Y-56056575D01*
X148466744Y-56056575D02*
X148523887Y-56170861D01*
X148523887Y-56170861D02*
X148581030Y-56228004D01*
X148581030Y-56228004D02*
X148695315Y-56285147D01*
X148695315Y-56285147D02*
X149152458Y-56285147D01*
X147952458Y-56228004D02*
X147552458Y-56228004D01*
X147381030Y-56856575D02*
X147952458Y-56856575D01*
X147952458Y-56856575D02*
X147952458Y-55656575D01*
X147952458Y-55656575D02*
X147381030Y-55656575D01*
X146923887Y-56799433D02*
X146752459Y-56856575D01*
X146752459Y-56856575D02*
X146466744Y-56856575D01*
X146466744Y-56856575D02*
X146352459Y-56799433D01*
X146352459Y-56799433D02*
X146295316Y-56742290D01*
X146295316Y-56742290D02*
X146238173Y-56628004D01*
X146238173Y-56628004D02*
X146238173Y-56513718D01*
X146238173Y-56513718D02*
X146295316Y-56399433D01*
X146295316Y-56399433D02*
X146352459Y-56342290D01*
X146352459Y-56342290D02*
X146466744Y-56285147D01*
X146466744Y-56285147D02*
X146695316Y-56228004D01*
X146695316Y-56228004D02*
X146809601Y-56170861D01*
X146809601Y-56170861D02*
X146866744Y-56113718D01*
X146866744Y-56113718D02*
X146923887Y-55999433D01*
X146923887Y-55999433D02*
X146923887Y-55885147D01*
X146923887Y-55885147D02*
X146866744Y-55770861D01*
X146866744Y-55770861D02*
X146809601Y-55713718D01*
X146809601Y-55713718D02*
X146695316Y-55656575D01*
X146695316Y-55656575D02*
X146409601Y-55656575D01*
X146409601Y-55656575D02*
X146238173Y-55713718D01*
X139722601Y-126960575D02*
X139722601Y-125760575D01*
X139722601Y-125760575D02*
X139436887Y-125760575D01*
X139436887Y-125760575D02*
X139265458Y-125817718D01*
X139265458Y-125817718D02*
X139151173Y-125932004D01*
X139151173Y-125932004D02*
X139094030Y-126046290D01*
X139094030Y-126046290D02*
X139036887Y-126274861D01*
X139036887Y-126274861D02*
X139036887Y-126446290D01*
X139036887Y-126446290D02*
X139094030Y-126674861D01*
X139094030Y-126674861D02*
X139151173Y-126789147D01*
X139151173Y-126789147D02*
X139265458Y-126903433D01*
X139265458Y-126903433D02*
X139436887Y-126960575D01*
X139436887Y-126960575D02*
X139722601Y-126960575D01*
X138008316Y-126160575D02*
X138008316Y-126960575D01*
X138294030Y-125703433D02*
X138579744Y-126560575D01*
X138579744Y-126560575D02*
X137836887Y-126560575D01*
X141452030Y-63879433D02*
X141394887Y-63822290D01*
X141394887Y-63822290D02*
X141280601Y-63765147D01*
X141280601Y-63765147D02*
X141052030Y-63879433D01*
X141052030Y-63879433D02*
X140937744Y-63822290D01*
X140937744Y-63822290D02*
X140880601Y-63765147D01*
X140423458Y-64336575D02*
X140423458Y-63136575D01*
X139166315Y-64336575D02*
X139566315Y-63765147D01*
X139852029Y-64336575D02*
X139852029Y-63136575D01*
X139852029Y-63136575D02*
X139394886Y-63136575D01*
X139394886Y-63136575D02*
X139280601Y-63193718D01*
X139280601Y-63193718D02*
X139223458Y-63250861D01*
X139223458Y-63250861D02*
X139166315Y-63365147D01*
X139166315Y-63365147D02*
X139166315Y-63536575D01*
X139166315Y-63536575D02*
X139223458Y-63650861D01*
X139223458Y-63650861D02*
X139280601Y-63708004D01*
X139280601Y-63708004D02*
X139394886Y-63765147D01*
X139394886Y-63765147D02*
X139852029Y-63765147D01*
X137852029Y-64450861D02*
X137966315Y-64393718D01*
X137966315Y-64393718D02*
X138080601Y-64279433D01*
X138080601Y-64279433D02*
X138252029Y-64108004D01*
X138252029Y-64108004D02*
X138366315Y-64050861D01*
X138366315Y-64050861D02*
X138480601Y-64050861D01*
X138423458Y-64336575D02*
X138537744Y-64279433D01*
X138537744Y-64279433D02*
X138652029Y-64165147D01*
X138652029Y-64165147D02*
X138709172Y-63936575D01*
X138709172Y-63936575D02*
X138709172Y-63536575D01*
X138709172Y-63536575D02*
X138652029Y-63308004D01*
X138652029Y-63308004D02*
X138537744Y-63193718D01*
X138537744Y-63193718D02*
X138423458Y-63136575D01*
X138423458Y-63136575D02*
X138194886Y-63136575D01*
X138194886Y-63136575D02*
X138080601Y-63193718D01*
X138080601Y-63193718D02*
X137966315Y-63308004D01*
X137966315Y-63308004D02*
X137909172Y-63536575D01*
X137909172Y-63536575D02*
X137909172Y-63936575D01*
X137909172Y-63936575D02*
X137966315Y-64165147D01*
X137966315Y-64165147D02*
X138080601Y-64279433D01*
X138080601Y-64279433D02*
X138194886Y-64336575D01*
X138194886Y-64336575D02*
X138423458Y-64336575D01*
X142008601Y-61936575D02*
X142008601Y-60736575D01*
X142008601Y-60736575D02*
X141551458Y-60736575D01*
X141551458Y-60736575D02*
X141437173Y-60793718D01*
X141437173Y-60793718D02*
X141380030Y-60850861D01*
X141380030Y-60850861D02*
X141322887Y-60965147D01*
X141322887Y-60965147D02*
X141322887Y-61136575D01*
X141322887Y-61136575D02*
X141380030Y-61250861D01*
X141380030Y-61250861D02*
X141437173Y-61308004D01*
X141437173Y-61308004D02*
X141551458Y-61365147D01*
X141551458Y-61365147D02*
X142008601Y-61365147D01*
X140808601Y-61936575D02*
X140808601Y-60736575D01*
X140808601Y-61308004D02*
X140122887Y-61308004D01*
X140122887Y-61936575D02*
X140122887Y-60736575D01*
X139551458Y-61936575D02*
X139551458Y-60736575D01*
X137437172Y-61936575D02*
X138122886Y-61936575D01*
X137780029Y-61936575D02*
X137780029Y-60736575D01*
X137780029Y-60736575D02*
X137894315Y-60908004D01*
X137894315Y-60908004D02*
X138008600Y-61022290D01*
X138008600Y-61022290D02*
X138122886Y-61079433D01*
X139722601Y-129500575D02*
X139722601Y-128300575D01*
X139722601Y-128300575D02*
X139436887Y-128300575D01*
X139436887Y-128300575D02*
X139265458Y-128357718D01*
X139265458Y-128357718D02*
X139151173Y-128472004D01*
X139151173Y-128472004D02*
X139094030Y-128586290D01*
X139094030Y-128586290D02*
X139036887Y-128814861D01*
X139036887Y-128814861D02*
X139036887Y-128986290D01*
X139036887Y-128986290D02*
X139094030Y-129214861D01*
X139094030Y-129214861D02*
X139151173Y-129329147D01*
X139151173Y-129329147D02*
X139265458Y-129443433D01*
X139265458Y-129443433D02*
X139436887Y-129500575D01*
X139436887Y-129500575D02*
X139722601Y-129500575D01*
X137951173Y-128300575D02*
X138522601Y-128300575D01*
X138522601Y-128300575D02*
X138579744Y-128872004D01*
X138579744Y-128872004D02*
X138522601Y-128814861D01*
X138522601Y-128814861D02*
X138408316Y-128757718D01*
X138408316Y-128757718D02*
X138122601Y-128757718D01*
X138122601Y-128757718D02*
X138008316Y-128814861D01*
X138008316Y-128814861D02*
X137951173Y-128872004D01*
X137951173Y-128872004D02*
X137894030Y-128986290D01*
X137894030Y-128986290D02*
X137894030Y-129272004D01*
X137894030Y-129272004D02*
X137951173Y-129386290D01*
X137951173Y-129386290D02*
X138008316Y-129443433D01*
X138008316Y-129443433D02*
X138122601Y-129500575D01*
X138122601Y-129500575D02*
X138408316Y-129500575D01*
X138408316Y-129500575D02*
X138522601Y-129443433D01*
X138522601Y-129443433D02*
X138579744Y-129386290D01*
X140802030Y-136659433D02*
X140744887Y-136602290D01*
X140744887Y-136602290D02*
X140630601Y-136545147D01*
X140630601Y-136545147D02*
X140402030Y-136659433D01*
X140402030Y-136659433D02*
X140287744Y-136602290D01*
X140287744Y-136602290D02*
X140230601Y-136545147D01*
X139087744Y-137002290D02*
X139144887Y-137059433D01*
X139144887Y-137059433D02*
X139316315Y-137116575D01*
X139316315Y-137116575D02*
X139430601Y-137116575D01*
X139430601Y-137116575D02*
X139602030Y-137059433D01*
X139602030Y-137059433D02*
X139716315Y-136945147D01*
X139716315Y-136945147D02*
X139773458Y-136830861D01*
X139773458Y-136830861D02*
X139830601Y-136602290D01*
X139830601Y-136602290D02*
X139830601Y-136430861D01*
X139830601Y-136430861D02*
X139773458Y-136202290D01*
X139773458Y-136202290D02*
X139716315Y-136088004D01*
X139716315Y-136088004D02*
X139602030Y-135973718D01*
X139602030Y-135973718D02*
X139430601Y-135916575D01*
X139430601Y-135916575D02*
X139316315Y-135916575D01*
X139316315Y-135916575D02*
X139144887Y-135973718D01*
X139144887Y-135973718D02*
X139087744Y-136030861D01*
X138573458Y-136488004D02*
X138173458Y-136488004D01*
X138002030Y-137116575D02*
X138573458Y-137116575D01*
X138573458Y-137116575D02*
X138573458Y-135916575D01*
X138573458Y-135916575D02*
X138002030Y-135916575D01*
X150066744Y-102106718D02*
X149495316Y-102106718D01*
X150181030Y-102449575D02*
X149781030Y-101249575D01*
X149781030Y-101249575D02*
X149381030Y-102449575D01*
X148352459Y-102449575D02*
X149038173Y-102449575D01*
X148695316Y-102449575D02*
X148695316Y-101249575D01*
X148695316Y-101249575D02*
X148809602Y-101421004D01*
X148809602Y-101421004D02*
X148923887Y-101535290D01*
X148923887Y-101535290D02*
X149038173Y-101592433D01*
X147895316Y-101363861D02*
X147838173Y-101306718D01*
X147838173Y-101306718D02*
X147723888Y-101249575D01*
X147723888Y-101249575D02*
X147438173Y-101249575D01*
X147438173Y-101249575D02*
X147323888Y-101306718D01*
X147323888Y-101306718D02*
X147266745Y-101363861D01*
X147266745Y-101363861D02*
X147209602Y-101478147D01*
X147209602Y-101478147D02*
X147209602Y-101592433D01*
X147209602Y-101592433D02*
X147266745Y-101763861D01*
X147266745Y-101763861D02*
X147952459Y-102449575D01*
X147952459Y-102449575D02*
X147209602Y-102449575D01*
X150066744Y-134237718D02*
X149495316Y-134237718D01*
X150181030Y-134580575D02*
X149781030Y-133380575D01*
X149781030Y-133380575D02*
X149381030Y-134580575D01*
X148752459Y-133380575D02*
X148638173Y-133380575D01*
X148638173Y-133380575D02*
X148523887Y-133437718D01*
X148523887Y-133437718D02*
X148466745Y-133494861D01*
X148466745Y-133494861D02*
X148409602Y-133609147D01*
X148409602Y-133609147D02*
X148352459Y-133837718D01*
X148352459Y-133837718D02*
X148352459Y-134123433D01*
X148352459Y-134123433D02*
X148409602Y-134352004D01*
X148409602Y-134352004D02*
X148466745Y-134466290D01*
X148466745Y-134466290D02*
X148523887Y-134523433D01*
X148523887Y-134523433D02*
X148638173Y-134580575D01*
X148638173Y-134580575D02*
X148752459Y-134580575D01*
X148752459Y-134580575D02*
X148866745Y-134523433D01*
X148866745Y-134523433D02*
X148923887Y-134466290D01*
X148923887Y-134466290D02*
X148981030Y-134352004D01*
X148981030Y-134352004D02*
X149038173Y-134123433D01*
X149038173Y-134123433D02*
X149038173Y-133837718D01*
X149038173Y-133837718D02*
X148981030Y-133609147D01*
X148981030Y-133609147D02*
X148923887Y-133494861D01*
X148923887Y-133494861D02*
X148866745Y-133437718D01*
X148866745Y-133437718D02*
X148752459Y-133380575D01*
X139906744Y-149477718D02*
X139335316Y-149477718D01*
X140021030Y-149820575D02*
X139621030Y-148620575D01*
X139621030Y-148620575D02*
X139221030Y-149820575D01*
X138649602Y-149134861D02*
X138763887Y-149077718D01*
X138763887Y-149077718D02*
X138821030Y-149020575D01*
X138821030Y-149020575D02*
X138878173Y-148906290D01*
X138878173Y-148906290D02*
X138878173Y-148849147D01*
X138878173Y-148849147D02*
X138821030Y-148734861D01*
X138821030Y-148734861D02*
X138763887Y-148677718D01*
X138763887Y-148677718D02*
X138649602Y-148620575D01*
X138649602Y-148620575D02*
X138421030Y-148620575D01*
X138421030Y-148620575D02*
X138306745Y-148677718D01*
X138306745Y-148677718D02*
X138249602Y-148734861D01*
X138249602Y-148734861D02*
X138192459Y-148849147D01*
X138192459Y-148849147D02*
X138192459Y-148906290D01*
X138192459Y-148906290D02*
X138249602Y-149020575D01*
X138249602Y-149020575D02*
X138306745Y-149077718D01*
X138306745Y-149077718D02*
X138421030Y-149134861D01*
X138421030Y-149134861D02*
X138649602Y-149134861D01*
X138649602Y-149134861D02*
X138763887Y-149192004D01*
X138763887Y-149192004D02*
X138821030Y-149249147D01*
X138821030Y-149249147D02*
X138878173Y-149363433D01*
X138878173Y-149363433D02*
X138878173Y-149592004D01*
X138878173Y-149592004D02*
X138821030Y-149706290D01*
X138821030Y-149706290D02*
X138763887Y-149763433D01*
X138763887Y-149763433D02*
X138649602Y-149820575D01*
X138649602Y-149820575D02*
X138421030Y-149820575D01*
X138421030Y-149820575D02*
X138306745Y-149763433D01*
X138306745Y-149763433D02*
X138249602Y-149706290D01*
X138249602Y-149706290D02*
X138192459Y-149592004D01*
X138192459Y-149592004D02*
X138192459Y-149363433D01*
X138192459Y-149363433D02*
X138249602Y-149249147D01*
X138249602Y-149249147D02*
X138306745Y-149192004D01*
X138306745Y-149192004D02*
X138421030Y-149134861D01*
X150009601Y-129500575D02*
X150009601Y-128300575D01*
X150009601Y-128300575D02*
X149723887Y-128300575D01*
X149723887Y-128300575D02*
X149552458Y-128357718D01*
X149552458Y-128357718D02*
X149438173Y-128472004D01*
X149438173Y-128472004D02*
X149381030Y-128586290D01*
X149381030Y-128586290D02*
X149323887Y-128814861D01*
X149323887Y-128814861D02*
X149323887Y-128986290D01*
X149323887Y-128986290D02*
X149381030Y-129214861D01*
X149381030Y-129214861D02*
X149438173Y-129329147D01*
X149438173Y-129329147D02*
X149552458Y-129443433D01*
X149552458Y-129443433D02*
X149723887Y-129500575D01*
X149723887Y-129500575D02*
X150009601Y-129500575D01*
X148181030Y-129500575D02*
X148866744Y-129500575D01*
X148523887Y-129500575D02*
X148523887Y-128300575D01*
X148523887Y-128300575D02*
X148638173Y-128472004D01*
X148638173Y-128472004D02*
X148752458Y-128586290D01*
X148752458Y-128586290D02*
X148866744Y-128643433D01*
X139722601Y-124420575D02*
X139722601Y-123220575D01*
X139722601Y-123220575D02*
X139436887Y-123220575D01*
X139436887Y-123220575D02*
X139265458Y-123277718D01*
X139265458Y-123277718D02*
X139151173Y-123392004D01*
X139151173Y-123392004D02*
X139094030Y-123506290D01*
X139094030Y-123506290D02*
X139036887Y-123734861D01*
X139036887Y-123734861D02*
X139036887Y-123906290D01*
X139036887Y-123906290D02*
X139094030Y-124134861D01*
X139094030Y-124134861D02*
X139151173Y-124249147D01*
X139151173Y-124249147D02*
X139265458Y-124363433D01*
X139265458Y-124363433D02*
X139436887Y-124420575D01*
X139436887Y-124420575D02*
X139722601Y-124420575D01*
X138636887Y-123220575D02*
X137894030Y-123220575D01*
X137894030Y-123220575D02*
X138294030Y-123677718D01*
X138294030Y-123677718D02*
X138122601Y-123677718D01*
X138122601Y-123677718D02*
X138008316Y-123734861D01*
X138008316Y-123734861D02*
X137951173Y-123792004D01*
X137951173Y-123792004D02*
X137894030Y-123906290D01*
X137894030Y-123906290D02*
X137894030Y-124192004D01*
X137894030Y-124192004D02*
X137951173Y-124306290D01*
X137951173Y-124306290D02*
X138008316Y-124363433D01*
X138008316Y-124363433D02*
X138122601Y-124420575D01*
X138122601Y-124420575D02*
X138465458Y-124420575D01*
X138465458Y-124420575D02*
X138579744Y-124363433D01*
X138579744Y-124363433D02*
X138636887Y-124306290D01*
X139906744Y-86993718D02*
X139335316Y-86993718D01*
X140021030Y-87336575D02*
X139621030Y-86136575D01*
X139621030Y-86136575D02*
X139221030Y-87336575D01*
X138306745Y-86536575D02*
X138306745Y-87336575D01*
X138592459Y-86079433D02*
X138878173Y-86936575D01*
X138878173Y-86936575D02*
X138135316Y-86936575D01*
X140668744Y-152017718D02*
X140097316Y-152017718D01*
X140783030Y-152360575D02*
X140383030Y-151160575D01*
X140383030Y-151160575D02*
X139983030Y-152360575D01*
X138954459Y-152360575D02*
X139640173Y-152360575D01*
X139297316Y-152360575D02*
X139297316Y-151160575D01*
X139297316Y-151160575D02*
X139411602Y-151332004D01*
X139411602Y-151332004D02*
X139525887Y-151446290D01*
X139525887Y-151446290D02*
X139640173Y-151503433D01*
X138554459Y-151160575D02*
X137811602Y-151160575D01*
X137811602Y-151160575D02*
X138211602Y-151617718D01*
X138211602Y-151617718D02*
X138040173Y-151617718D01*
X138040173Y-151617718D02*
X137925888Y-151674861D01*
X137925888Y-151674861D02*
X137868745Y-151732004D01*
X137868745Y-151732004D02*
X137811602Y-151846290D01*
X137811602Y-151846290D02*
X137811602Y-152132004D01*
X137811602Y-152132004D02*
X137868745Y-152246290D01*
X137868745Y-152246290D02*
X137925888Y-152303433D01*
X137925888Y-152303433D02*
X138040173Y-152360575D01*
X138040173Y-152360575D02*
X138383030Y-152360575D01*
X138383030Y-152360575D02*
X138497316Y-152303433D01*
X138497316Y-152303433D02*
X138554459Y-152246290D01*
D11*
X141072030Y-55659342D02*
X140672030Y-56859342D01*
X140672030Y-56859342D02*
X140272030Y-55659342D01*
X139929173Y-56802200D02*
X139814887Y-56859342D01*
X139814887Y-56859342D02*
X139586316Y-56859342D01*
X139586316Y-56859342D02*
X139472030Y-56802200D01*
X139472030Y-56802200D02*
X139414887Y-56687914D01*
X139414887Y-56687914D02*
X139414887Y-56630771D01*
X139414887Y-56630771D02*
X139472030Y-56516485D01*
X139472030Y-56516485D02*
X139586316Y-56459342D01*
X139586316Y-56459342D02*
X139757745Y-56459342D01*
X139757745Y-56459342D02*
X139872030Y-56402200D01*
X139872030Y-56402200D02*
X139929173Y-56287914D01*
X139929173Y-56287914D02*
X139929173Y-56230771D01*
X139929173Y-56230771D02*
X139872030Y-56116485D01*
X139872030Y-56116485D02*
X139757745Y-56059342D01*
X139757745Y-56059342D02*
X139586316Y-56059342D01*
X139586316Y-56059342D02*
X139472030Y-56116485D01*
X138957744Y-56802200D02*
X138843458Y-56859342D01*
X138843458Y-56859342D02*
X138614887Y-56859342D01*
X138614887Y-56859342D02*
X138500601Y-56802200D01*
X138500601Y-56802200D02*
X138443458Y-56687914D01*
X138443458Y-56687914D02*
X138443458Y-56630771D01*
X138443458Y-56630771D02*
X138500601Y-56516485D01*
X138500601Y-56516485D02*
X138614887Y-56459342D01*
X138614887Y-56459342D02*
X138786316Y-56459342D01*
X138786316Y-56459342D02*
X138900601Y-56402200D01*
X138900601Y-56402200D02*
X138957744Y-56287914D01*
X138957744Y-56287914D02*
X138957744Y-56230771D01*
X138957744Y-56230771D02*
X138900601Y-56116485D01*
X138900601Y-56116485D02*
X138786316Y-56059342D01*
X138786316Y-56059342D02*
X138614887Y-56059342D01*
X138614887Y-56059342D02*
X138500601Y-56116485D01*
D10*
X150009601Y-126960575D02*
X150009601Y-125760575D01*
X150009601Y-125760575D02*
X149723887Y-125760575D01*
X149723887Y-125760575D02*
X149552458Y-125817718D01*
X149552458Y-125817718D02*
X149438173Y-125932004D01*
X149438173Y-125932004D02*
X149381030Y-126046290D01*
X149381030Y-126046290D02*
X149323887Y-126274861D01*
X149323887Y-126274861D02*
X149323887Y-126446290D01*
X149323887Y-126446290D02*
X149381030Y-126674861D01*
X149381030Y-126674861D02*
X149438173Y-126789147D01*
X149438173Y-126789147D02*
X149552458Y-126903433D01*
X149552458Y-126903433D02*
X149723887Y-126960575D01*
X149723887Y-126960575D02*
X150009601Y-126960575D01*
X148866744Y-125874861D02*
X148809601Y-125817718D01*
X148809601Y-125817718D02*
X148695316Y-125760575D01*
X148695316Y-125760575D02*
X148409601Y-125760575D01*
X148409601Y-125760575D02*
X148295316Y-125817718D01*
X148295316Y-125817718D02*
X148238173Y-125874861D01*
X148238173Y-125874861D02*
X148181030Y-125989147D01*
X148181030Y-125989147D02*
X148181030Y-126103433D01*
X148181030Y-126103433D02*
X148238173Y-126274861D01*
X148238173Y-126274861D02*
X148923887Y-126960575D01*
X148923887Y-126960575D02*
X148181030Y-126960575D01*
X150181030Y-123220575D02*
X149781030Y-124420575D01*
X149781030Y-124420575D02*
X149381030Y-123220575D01*
X149038173Y-124363433D02*
X148923887Y-124420575D01*
X148923887Y-124420575D02*
X148695316Y-124420575D01*
X148695316Y-124420575D02*
X148581030Y-124363433D01*
X148581030Y-124363433D02*
X148523887Y-124249147D01*
X148523887Y-124249147D02*
X148523887Y-124192004D01*
X148523887Y-124192004D02*
X148581030Y-124077718D01*
X148581030Y-124077718D02*
X148695316Y-124020575D01*
X148695316Y-124020575D02*
X148866745Y-124020575D01*
X148866745Y-124020575D02*
X148981030Y-123963433D01*
X148981030Y-123963433D02*
X149038173Y-123849147D01*
X149038173Y-123849147D02*
X149038173Y-123792004D01*
X149038173Y-123792004D02*
X148981030Y-123677718D01*
X148981030Y-123677718D02*
X148866745Y-123620575D01*
X148866745Y-123620575D02*
X148695316Y-123620575D01*
X148695316Y-123620575D02*
X148581030Y-123677718D01*
X148066744Y-124363433D02*
X147952458Y-124420575D01*
X147952458Y-124420575D02*
X147723887Y-124420575D01*
X147723887Y-124420575D02*
X147609601Y-124363433D01*
X147609601Y-124363433D02*
X147552458Y-124249147D01*
X147552458Y-124249147D02*
X147552458Y-124192004D01*
X147552458Y-124192004D02*
X147609601Y-124077718D01*
X147609601Y-124077718D02*
X147723887Y-124020575D01*
X147723887Y-124020575D02*
X147895316Y-124020575D01*
X147895316Y-124020575D02*
X148009601Y-123963433D01*
X148009601Y-123963433D02*
X148066744Y-123849147D01*
X148066744Y-123849147D02*
X148066744Y-123792004D01*
X148066744Y-123792004D02*
X148009601Y-123677718D01*
X148009601Y-123677718D02*
X147895316Y-123620575D01*
X147895316Y-123620575D02*
X147723887Y-123620575D01*
X147723887Y-123620575D02*
X147609601Y-123677718D01*
X140902030Y-154429433D02*
X140844887Y-154372290D01*
X140844887Y-154372290D02*
X140730601Y-154315147D01*
X140730601Y-154315147D02*
X140502030Y-154429433D01*
X140502030Y-154429433D02*
X140387744Y-154372290D01*
X140387744Y-154372290D02*
X140330601Y-154315147D01*
X139987744Y-153686575D02*
X139702030Y-154886575D01*
X139702030Y-154886575D02*
X139473458Y-154029433D01*
X139473458Y-154029433D02*
X139244887Y-154886575D01*
X139244887Y-154886575D02*
X138959173Y-153686575D01*
X138502029Y-154258004D02*
X138102029Y-154258004D01*
X137930601Y-154886575D02*
X138502029Y-154886575D01*
X138502029Y-154886575D02*
X138502029Y-153686575D01*
X138502029Y-153686575D02*
X137930601Y-153686575D01*
X150066744Y-149477718D02*
X149495316Y-149477718D01*
X150181030Y-149820575D02*
X149781030Y-148620575D01*
X149781030Y-148620575D02*
X149381030Y-149820575D01*
X148466745Y-148620575D02*
X148695316Y-148620575D01*
X148695316Y-148620575D02*
X148809602Y-148677718D01*
X148809602Y-148677718D02*
X148866745Y-148734861D01*
X148866745Y-148734861D02*
X148981030Y-148906290D01*
X148981030Y-148906290D02*
X149038173Y-149134861D01*
X149038173Y-149134861D02*
X149038173Y-149592004D01*
X149038173Y-149592004D02*
X148981030Y-149706290D01*
X148981030Y-149706290D02*
X148923887Y-149763433D01*
X148923887Y-149763433D02*
X148809602Y-149820575D01*
X148809602Y-149820575D02*
X148581030Y-149820575D01*
X148581030Y-149820575D02*
X148466745Y-149763433D01*
X148466745Y-149763433D02*
X148409602Y-149706290D01*
X148409602Y-149706290D02*
X148352459Y-149592004D01*
X148352459Y-149592004D02*
X148352459Y-149306290D01*
X148352459Y-149306290D02*
X148409602Y-149192004D01*
X148409602Y-149192004D02*
X148466745Y-149134861D01*
X148466745Y-149134861D02*
X148581030Y-149077718D01*
X148581030Y-149077718D02*
X148809602Y-149077718D01*
X148809602Y-149077718D02*
X148923887Y-149134861D01*
X148923887Y-149134861D02*
X148981030Y-149192004D01*
X148981030Y-149192004D02*
X149038173Y-149306290D01*
X150009601Y-74636575D02*
X150009601Y-73436575D01*
X150009601Y-73436575D02*
X149723887Y-73436575D01*
X149723887Y-73436575D02*
X149552458Y-73493718D01*
X149552458Y-73493718D02*
X149438173Y-73608004D01*
X149438173Y-73608004D02*
X149381030Y-73722290D01*
X149381030Y-73722290D02*
X149323887Y-73950861D01*
X149323887Y-73950861D02*
X149323887Y-74122290D01*
X149323887Y-74122290D02*
X149381030Y-74350861D01*
X149381030Y-74350861D02*
X149438173Y-74465147D01*
X149438173Y-74465147D02*
X149552458Y-74579433D01*
X149552458Y-74579433D02*
X149723887Y-74636575D01*
X149723887Y-74636575D02*
X150009601Y-74636575D01*
X148581030Y-73436575D02*
X148466744Y-73436575D01*
X148466744Y-73436575D02*
X148352458Y-73493718D01*
X148352458Y-73493718D02*
X148295316Y-73550861D01*
X148295316Y-73550861D02*
X148238173Y-73665147D01*
X148238173Y-73665147D02*
X148181030Y-73893718D01*
X148181030Y-73893718D02*
X148181030Y-74179433D01*
X148181030Y-74179433D02*
X148238173Y-74408004D01*
X148238173Y-74408004D02*
X148295316Y-74522290D01*
X148295316Y-74522290D02*
X148352458Y-74579433D01*
X148352458Y-74579433D02*
X148466744Y-74636575D01*
X148466744Y-74636575D02*
X148581030Y-74636575D01*
X148581030Y-74636575D02*
X148695316Y-74579433D01*
X148695316Y-74579433D02*
X148752458Y-74522290D01*
X148752458Y-74522290D02*
X148809601Y-74408004D01*
X148809601Y-74408004D02*
X148866744Y-74179433D01*
X148866744Y-74179433D02*
X148866744Y-73893718D01*
X148866744Y-73893718D02*
X148809601Y-73665147D01*
X148809601Y-73665147D02*
X148752458Y-73550861D01*
X148752458Y-73550861D02*
X148695316Y-73493718D01*
X148695316Y-73493718D02*
X148581030Y-73436575D01*
X139906744Y-84453718D02*
X139335316Y-84453718D01*
X140021030Y-84796575D02*
X139621030Y-83596575D01*
X139621030Y-83596575D02*
X139221030Y-84796575D01*
X138935316Y-83596575D02*
X138192459Y-83596575D01*
X138192459Y-83596575D02*
X138592459Y-84053718D01*
X138592459Y-84053718D02*
X138421030Y-84053718D01*
X138421030Y-84053718D02*
X138306745Y-84110861D01*
X138306745Y-84110861D02*
X138249602Y-84168004D01*
X138249602Y-84168004D02*
X138192459Y-84282290D01*
X138192459Y-84282290D02*
X138192459Y-84568004D01*
X138192459Y-84568004D02*
X138249602Y-84682290D01*
X138249602Y-84682290D02*
X138306745Y-84739433D01*
X138306745Y-84739433D02*
X138421030Y-84796575D01*
X138421030Y-84796575D02*
X138763887Y-84796575D01*
X138763887Y-84796575D02*
X138878173Y-84739433D01*
X138878173Y-84739433D02*
X138935316Y-84682290D01*
X140892030Y-73466575D02*
X140492030Y-74666575D01*
X140492030Y-74666575D02*
X140092030Y-73466575D01*
X139177745Y-74609433D02*
X139292030Y-74666575D01*
X139292030Y-74666575D02*
X139520602Y-74666575D01*
X139520602Y-74666575D02*
X139634887Y-74609433D01*
X139634887Y-74609433D02*
X139692030Y-74552290D01*
X139692030Y-74552290D02*
X139749173Y-74438004D01*
X139749173Y-74438004D02*
X139749173Y-74095147D01*
X139749173Y-74095147D02*
X139692030Y-73980861D01*
X139692030Y-73980861D02*
X139634887Y-73923718D01*
X139634887Y-73923718D02*
X139520602Y-73866575D01*
X139520602Y-73866575D02*
X139292030Y-73866575D01*
X139292030Y-73866575D02*
X139177745Y-73923718D01*
X138149174Y-74609433D02*
X138263459Y-74666575D01*
X138263459Y-74666575D02*
X138492031Y-74666575D01*
X138492031Y-74666575D02*
X138606316Y-74609433D01*
X138606316Y-74609433D02*
X138663459Y-74552290D01*
X138663459Y-74552290D02*
X138720602Y-74438004D01*
X138720602Y-74438004D02*
X138720602Y-74095147D01*
X138720602Y-74095147D02*
X138663459Y-73980861D01*
X138663459Y-73980861D02*
X138606316Y-73923718D01*
X138606316Y-73923718D02*
X138492031Y-73866575D01*
X138492031Y-73866575D02*
X138263459Y-73866575D01*
X138263459Y-73866575D02*
X138149174Y-73923718D01*
X150066744Y-157097718D02*
X149495316Y-157097718D01*
X150181030Y-157440575D02*
X149781030Y-156240575D01*
X149781030Y-156240575D02*
X149381030Y-157440575D01*
X148352459Y-157440575D02*
X149038173Y-157440575D01*
X148695316Y-157440575D02*
X148695316Y-156240575D01*
X148695316Y-156240575D02*
X148809602Y-156412004D01*
X148809602Y-156412004D02*
X148923887Y-156526290D01*
X148923887Y-156526290D02*
X149038173Y-156583433D01*
X147323888Y-156640575D02*
X147323888Y-157440575D01*
X147609602Y-156183433D02*
X147895316Y-157040575D01*
X147895316Y-157040575D02*
X147152459Y-157040575D01*
X139906744Y-99693718D02*
X139335316Y-99693718D01*
X140021030Y-100036575D02*
X139621030Y-98836575D01*
X139621030Y-98836575D02*
X139221030Y-100036575D01*
X138763887Y-100036575D02*
X138535316Y-100036575D01*
X138535316Y-100036575D02*
X138421030Y-99979433D01*
X138421030Y-99979433D02*
X138363887Y-99922290D01*
X138363887Y-99922290D02*
X138249602Y-99750861D01*
X138249602Y-99750861D02*
X138192459Y-99522290D01*
X138192459Y-99522290D02*
X138192459Y-99065147D01*
X138192459Y-99065147D02*
X138249602Y-98950861D01*
X138249602Y-98950861D02*
X138306745Y-98893718D01*
X138306745Y-98893718D02*
X138421030Y-98836575D01*
X138421030Y-98836575D02*
X138649602Y-98836575D01*
X138649602Y-98836575D02*
X138763887Y-98893718D01*
X138763887Y-98893718D02*
X138821030Y-98950861D01*
X138821030Y-98950861D02*
X138878173Y-99065147D01*
X138878173Y-99065147D02*
X138878173Y-99350861D01*
X138878173Y-99350861D02*
X138821030Y-99465147D01*
X138821030Y-99465147D02*
X138763887Y-99522290D01*
X138763887Y-99522290D02*
X138649602Y-99579433D01*
X138649602Y-99579433D02*
X138421030Y-99579433D01*
X138421030Y-99579433D02*
X138306745Y-99522290D01*
X138306745Y-99522290D02*
X138249602Y-99465147D01*
X138249602Y-99465147D02*
X138192459Y-99350861D01*
X150181030Y-103789575D02*
X149781030Y-104989575D01*
X149781030Y-104989575D02*
X149381030Y-103789575D01*
X149038173Y-104932433D02*
X148923887Y-104989575D01*
X148923887Y-104989575D02*
X148695316Y-104989575D01*
X148695316Y-104989575D02*
X148581030Y-104932433D01*
X148581030Y-104932433D02*
X148523887Y-104818147D01*
X148523887Y-104818147D02*
X148523887Y-104761004D01*
X148523887Y-104761004D02*
X148581030Y-104646718D01*
X148581030Y-104646718D02*
X148695316Y-104589575D01*
X148695316Y-104589575D02*
X148866745Y-104589575D01*
X148866745Y-104589575D02*
X148981030Y-104532433D01*
X148981030Y-104532433D02*
X149038173Y-104418147D01*
X149038173Y-104418147D02*
X149038173Y-104361004D01*
X149038173Y-104361004D02*
X148981030Y-104246718D01*
X148981030Y-104246718D02*
X148866745Y-104189575D01*
X148866745Y-104189575D02*
X148695316Y-104189575D01*
X148695316Y-104189575D02*
X148581030Y-104246718D01*
X148066744Y-104932433D02*
X147952458Y-104989575D01*
X147952458Y-104989575D02*
X147723887Y-104989575D01*
X147723887Y-104989575D02*
X147609601Y-104932433D01*
X147609601Y-104932433D02*
X147552458Y-104818147D01*
X147552458Y-104818147D02*
X147552458Y-104761004D01*
X147552458Y-104761004D02*
X147609601Y-104646718D01*
X147609601Y-104646718D02*
X147723887Y-104589575D01*
X147723887Y-104589575D02*
X147895316Y-104589575D01*
X147895316Y-104589575D02*
X148009601Y-104532433D01*
X148009601Y-104532433D02*
X148066744Y-104418147D01*
X148066744Y-104418147D02*
X148066744Y-104361004D01*
X148066744Y-104361004D02*
X148009601Y-104246718D01*
X148009601Y-104246718D02*
X147895316Y-104189575D01*
X147895316Y-104189575D02*
X147723887Y-104189575D01*
X147723887Y-104189575D02*
X147609601Y-104246718D01*
X140712030Y-141739433D02*
X140654887Y-141682290D01*
X140654887Y-141682290D02*
X140540601Y-141625147D01*
X140540601Y-141625147D02*
X140312030Y-141739433D01*
X140312030Y-141739433D02*
X140197744Y-141682290D01*
X140197744Y-141682290D02*
X140140601Y-141625147D01*
X139454887Y-140996575D02*
X139226315Y-140996575D01*
X139226315Y-140996575D02*
X139112030Y-141053718D01*
X139112030Y-141053718D02*
X138997744Y-141168004D01*
X138997744Y-141168004D02*
X138940601Y-141396575D01*
X138940601Y-141396575D02*
X138940601Y-141796575D01*
X138940601Y-141796575D02*
X138997744Y-142025147D01*
X138997744Y-142025147D02*
X139112030Y-142139433D01*
X139112030Y-142139433D02*
X139226315Y-142196575D01*
X139226315Y-142196575D02*
X139454887Y-142196575D01*
X139454887Y-142196575D02*
X139569173Y-142139433D01*
X139569173Y-142139433D02*
X139683458Y-142025147D01*
X139683458Y-142025147D02*
X139740601Y-141796575D01*
X139740601Y-141796575D02*
X139740601Y-141396575D01*
X139740601Y-141396575D02*
X139683458Y-141168004D01*
X139683458Y-141168004D02*
X139569173Y-141053718D01*
X139569173Y-141053718D02*
X139454887Y-140996575D01*
X138426315Y-141568004D02*
X138026315Y-141568004D01*
X137854887Y-142196575D02*
X138426315Y-142196575D01*
X138426315Y-142196575D02*
X138426315Y-140996575D01*
X138426315Y-140996575D02*
X137854887Y-140996575D01*
X139906744Y-79373718D02*
X139335316Y-79373718D01*
X140021030Y-79716575D02*
X139621030Y-78516575D01*
X139621030Y-78516575D02*
X139221030Y-79716575D01*
X138192459Y-79716575D02*
X138878173Y-79716575D01*
X138535316Y-79716575D02*
X138535316Y-78516575D01*
X138535316Y-78516575D02*
X138649602Y-78688004D01*
X138649602Y-78688004D02*
X138763887Y-78802290D01*
X138763887Y-78802290D02*
X138878173Y-78859433D01*
X139906744Y-94613718D02*
X139335316Y-94613718D01*
X140021030Y-94956575D02*
X139621030Y-93756575D01*
X139621030Y-93756575D02*
X139221030Y-94956575D01*
X138935316Y-93756575D02*
X138135316Y-93756575D01*
X138135316Y-93756575D02*
X138649602Y-94956575D01*
X139906744Y-89533718D02*
X139335316Y-89533718D01*
X140021030Y-89876575D02*
X139621030Y-88676575D01*
X139621030Y-88676575D02*
X139221030Y-89876575D01*
X138249602Y-88676575D02*
X138821030Y-88676575D01*
X138821030Y-88676575D02*
X138878173Y-89248004D01*
X138878173Y-89248004D02*
X138821030Y-89190861D01*
X138821030Y-89190861D02*
X138706745Y-89133718D01*
X138706745Y-89133718D02*
X138421030Y-89133718D01*
X138421030Y-89133718D02*
X138306745Y-89190861D01*
X138306745Y-89190861D02*
X138249602Y-89248004D01*
X138249602Y-89248004D02*
X138192459Y-89362290D01*
X138192459Y-89362290D02*
X138192459Y-89648004D01*
X138192459Y-89648004D02*
X138249602Y-89762290D01*
X138249602Y-89762290D02*
X138306745Y-89819433D01*
X138306745Y-89819433D02*
X138421030Y-89876575D01*
X138421030Y-89876575D02*
X138706745Y-89876575D01*
X138706745Y-89876575D02*
X138821030Y-89819433D01*
X138821030Y-89819433D02*
X138878173Y-89762290D01*
X150066744Y-154557718D02*
X149495316Y-154557718D01*
X150181030Y-154900575D02*
X149781030Y-153700575D01*
X149781030Y-153700575D02*
X149381030Y-154900575D01*
X148352459Y-154900575D02*
X149038173Y-154900575D01*
X148695316Y-154900575D02*
X148695316Y-153700575D01*
X148695316Y-153700575D02*
X148809602Y-153872004D01*
X148809602Y-153872004D02*
X148923887Y-153986290D01*
X148923887Y-153986290D02*
X149038173Y-154043433D01*
X147895316Y-153814861D02*
X147838173Y-153757718D01*
X147838173Y-153757718D02*
X147723888Y-153700575D01*
X147723888Y-153700575D02*
X147438173Y-153700575D01*
X147438173Y-153700575D02*
X147323888Y-153757718D01*
X147323888Y-153757718D02*
X147266745Y-153814861D01*
X147266745Y-153814861D02*
X147209602Y-153929147D01*
X147209602Y-153929147D02*
X147209602Y-154043433D01*
X147209602Y-154043433D02*
X147266745Y-154214861D01*
X147266745Y-154214861D02*
X147952459Y-154900575D01*
X147952459Y-154900575D02*
X147209602Y-154900575D01*
X140160744Y-104646718D02*
X139589316Y-104646718D01*
X140275030Y-104989575D02*
X139875030Y-103789575D01*
X139875030Y-103789575D02*
X139475030Y-104989575D01*
X138446459Y-104989575D02*
X139132173Y-104989575D01*
X138789316Y-104989575D02*
X138789316Y-103789575D01*
X138789316Y-103789575D02*
X138903602Y-103961004D01*
X138903602Y-103961004D02*
X139017887Y-104075290D01*
X139017887Y-104075290D02*
X139132173Y-104132433D01*
X137303602Y-104989575D02*
X137989316Y-104989575D01*
X137646459Y-104989575D02*
X137646459Y-103789575D01*
X137646459Y-103789575D02*
X137760745Y-103961004D01*
X137760745Y-103961004D02*
X137875030Y-104075290D01*
X137875030Y-104075290D02*
X137989316Y-104132433D01*
X140407744Y-144413718D02*
X139836316Y-144413718D01*
X140522030Y-144756575D02*
X140122030Y-143556575D01*
X140122030Y-143556575D02*
X139722030Y-144756575D01*
X138693459Y-144756575D02*
X139379173Y-144756575D01*
X139036316Y-144756575D02*
X139036316Y-143556575D01*
X139036316Y-143556575D02*
X139150602Y-143728004D01*
X139150602Y-143728004D02*
X139264887Y-143842290D01*
X139264887Y-143842290D02*
X139379173Y-143899433D01*
X137550602Y-144756575D02*
X138236316Y-144756575D01*
X137893459Y-144756575D02*
X137893459Y-143556575D01*
X137893459Y-143556575D02*
X138007745Y-143728004D01*
X138007745Y-143728004D02*
X138122030Y-143842290D01*
X138122030Y-143842290D02*
X138236316Y-143899433D01*
X150009601Y-89876575D02*
X150009601Y-88676575D01*
X150009601Y-88676575D02*
X149723887Y-88676575D01*
X149723887Y-88676575D02*
X149552458Y-88733718D01*
X149552458Y-88733718D02*
X149438173Y-88848004D01*
X149438173Y-88848004D02*
X149381030Y-88962290D01*
X149381030Y-88962290D02*
X149323887Y-89190861D01*
X149323887Y-89190861D02*
X149323887Y-89362290D01*
X149323887Y-89362290D02*
X149381030Y-89590861D01*
X149381030Y-89590861D02*
X149438173Y-89705147D01*
X149438173Y-89705147D02*
X149552458Y-89819433D01*
X149552458Y-89819433D02*
X149723887Y-89876575D01*
X149723887Y-89876575D02*
X150009601Y-89876575D01*
X148295316Y-88676575D02*
X148523887Y-88676575D01*
X148523887Y-88676575D02*
X148638173Y-88733718D01*
X148638173Y-88733718D02*
X148695316Y-88790861D01*
X148695316Y-88790861D02*
X148809601Y-88962290D01*
X148809601Y-88962290D02*
X148866744Y-89190861D01*
X148866744Y-89190861D02*
X148866744Y-89648004D01*
X148866744Y-89648004D02*
X148809601Y-89762290D01*
X148809601Y-89762290D02*
X148752458Y-89819433D01*
X148752458Y-89819433D02*
X148638173Y-89876575D01*
X148638173Y-89876575D02*
X148409601Y-89876575D01*
X148409601Y-89876575D02*
X148295316Y-89819433D01*
X148295316Y-89819433D02*
X148238173Y-89762290D01*
X148238173Y-89762290D02*
X148181030Y-89648004D01*
X148181030Y-89648004D02*
X148181030Y-89362290D01*
X148181030Y-89362290D02*
X148238173Y-89248004D01*
X148238173Y-89248004D02*
X148295316Y-89190861D01*
X148295316Y-89190861D02*
X148409601Y-89133718D01*
X148409601Y-89133718D02*
X148638173Y-89133718D01*
X148638173Y-89133718D02*
X148752458Y-89190861D01*
X148752458Y-89190861D02*
X148809601Y-89248004D01*
X148809601Y-89248004D02*
X148866744Y-89362290D01*
X140782030Y-156240575D02*
X140382030Y-157440575D01*
X140382030Y-157440575D02*
X139982030Y-156240575D01*
X139067745Y-157383433D02*
X139182030Y-157440575D01*
X139182030Y-157440575D02*
X139410602Y-157440575D01*
X139410602Y-157440575D02*
X139524887Y-157383433D01*
X139524887Y-157383433D02*
X139582030Y-157326290D01*
X139582030Y-157326290D02*
X139639173Y-157212004D01*
X139639173Y-157212004D02*
X139639173Y-156869147D01*
X139639173Y-156869147D02*
X139582030Y-156754861D01*
X139582030Y-156754861D02*
X139524887Y-156697718D01*
X139524887Y-156697718D02*
X139410602Y-156640575D01*
X139410602Y-156640575D02*
X139182030Y-156640575D01*
X139182030Y-156640575D02*
X139067745Y-156697718D01*
X138039174Y-157383433D02*
X138153459Y-157440575D01*
X138153459Y-157440575D02*
X138382031Y-157440575D01*
X138382031Y-157440575D02*
X138496316Y-157383433D01*
X138496316Y-157383433D02*
X138553459Y-157326290D01*
X138553459Y-157326290D02*
X138610602Y-157212004D01*
X138610602Y-157212004D02*
X138610602Y-156869147D01*
X138610602Y-156869147D02*
X138553459Y-156754861D01*
X138553459Y-156754861D02*
X138496316Y-156697718D01*
X138496316Y-156697718D02*
X138382031Y-156640575D01*
X138382031Y-156640575D02*
X138153459Y-156640575D01*
X138153459Y-156640575D02*
X138039174Y-156697718D01*
X139849601Y-67016575D02*
X139849601Y-65816575D01*
X139849601Y-65816575D02*
X139163887Y-67016575D01*
X139163887Y-67016575D02*
X139163887Y-65816575D01*
X137906744Y-66902290D02*
X137963887Y-66959433D01*
X137963887Y-66959433D02*
X138135315Y-67016575D01*
X138135315Y-67016575D02*
X138249601Y-67016575D01*
X138249601Y-67016575D02*
X138421030Y-66959433D01*
X138421030Y-66959433D02*
X138535315Y-66845147D01*
X138535315Y-66845147D02*
X138592458Y-66730861D01*
X138592458Y-66730861D02*
X138649601Y-66502290D01*
X138649601Y-66502290D02*
X138649601Y-66330861D01*
X138649601Y-66330861D02*
X138592458Y-66102290D01*
X138592458Y-66102290D02*
X138535315Y-65988004D01*
X138535315Y-65988004D02*
X138421030Y-65873718D01*
X138421030Y-65873718D02*
X138249601Y-65816575D01*
X138249601Y-65816575D02*
X138135315Y-65816575D01*
X138135315Y-65816575D02*
X137963887Y-65873718D01*
X137963887Y-65873718D02*
X137906744Y-65930861D01*
X139722601Y-134580575D02*
X139722601Y-133380575D01*
X139722601Y-133380575D02*
X139436887Y-133380575D01*
X139436887Y-133380575D02*
X139265458Y-133437718D01*
X139265458Y-133437718D02*
X139151173Y-133552004D01*
X139151173Y-133552004D02*
X139094030Y-133666290D01*
X139094030Y-133666290D02*
X139036887Y-133894861D01*
X139036887Y-133894861D02*
X139036887Y-134066290D01*
X139036887Y-134066290D02*
X139094030Y-134294861D01*
X139094030Y-134294861D02*
X139151173Y-134409147D01*
X139151173Y-134409147D02*
X139265458Y-134523433D01*
X139265458Y-134523433D02*
X139436887Y-134580575D01*
X139436887Y-134580575D02*
X139722601Y-134580575D01*
X138636887Y-133380575D02*
X137836887Y-133380575D01*
X137836887Y-133380575D02*
X138351173Y-134580575D01*
X142197744Y-72039433D02*
X142026316Y-72096575D01*
X142026316Y-72096575D02*
X141740601Y-72096575D01*
X141740601Y-72096575D02*
X141626316Y-72039433D01*
X141626316Y-72039433D02*
X141569173Y-71982290D01*
X141569173Y-71982290D02*
X141512030Y-71868004D01*
X141512030Y-71868004D02*
X141512030Y-71753718D01*
X141512030Y-71753718D02*
X141569173Y-71639433D01*
X141569173Y-71639433D02*
X141626316Y-71582290D01*
X141626316Y-71582290D02*
X141740601Y-71525147D01*
X141740601Y-71525147D02*
X141969173Y-71468004D01*
X141969173Y-71468004D02*
X142083458Y-71410861D01*
X142083458Y-71410861D02*
X142140601Y-71353718D01*
X142140601Y-71353718D02*
X142197744Y-71239433D01*
X142197744Y-71239433D02*
X142197744Y-71125147D01*
X142197744Y-71125147D02*
X142140601Y-71010861D01*
X142140601Y-71010861D02*
X142083458Y-70953718D01*
X142083458Y-70953718D02*
X141969173Y-70896575D01*
X141969173Y-70896575D02*
X141683458Y-70896575D01*
X141683458Y-70896575D02*
X141512030Y-70953718D01*
X140769173Y-71525147D02*
X140769173Y-72096575D01*
X141169173Y-70896575D02*
X140769173Y-71525147D01*
X140769173Y-71525147D02*
X140369173Y-70896575D01*
X139969173Y-72096575D02*
X139969173Y-70896575D01*
X139969173Y-70896575D02*
X139283459Y-72096575D01*
X139283459Y-72096575D02*
X139283459Y-70896575D01*
X138026316Y-71982290D02*
X138083459Y-72039433D01*
X138083459Y-72039433D02*
X138254887Y-72096575D01*
X138254887Y-72096575D02*
X138369173Y-72096575D01*
X138369173Y-72096575D02*
X138540602Y-72039433D01*
X138540602Y-72039433D02*
X138654887Y-71925147D01*
X138654887Y-71925147D02*
X138712030Y-71810861D01*
X138712030Y-71810861D02*
X138769173Y-71582290D01*
X138769173Y-71582290D02*
X138769173Y-71410861D01*
X138769173Y-71410861D02*
X138712030Y-71182290D01*
X138712030Y-71182290D02*
X138654887Y-71068004D01*
X138654887Y-71068004D02*
X138540602Y-70953718D01*
X138540602Y-70953718D02*
X138369173Y-70896575D01*
X138369173Y-70896575D02*
X138254887Y-70896575D01*
X138254887Y-70896575D02*
X138083459Y-70953718D01*
X138083459Y-70953718D02*
X138026316Y-71010861D01*
X150009601Y-92416575D02*
X150009601Y-91216575D01*
X150009601Y-91216575D02*
X149723887Y-91216575D01*
X149723887Y-91216575D02*
X149552458Y-91273718D01*
X149552458Y-91273718D02*
X149438173Y-91388004D01*
X149438173Y-91388004D02*
X149381030Y-91502290D01*
X149381030Y-91502290D02*
X149323887Y-91730861D01*
X149323887Y-91730861D02*
X149323887Y-91902290D01*
X149323887Y-91902290D02*
X149381030Y-92130861D01*
X149381030Y-92130861D02*
X149438173Y-92245147D01*
X149438173Y-92245147D02*
X149552458Y-92359433D01*
X149552458Y-92359433D02*
X149723887Y-92416575D01*
X149723887Y-92416575D02*
X150009601Y-92416575D01*
X148923887Y-91216575D02*
X148123887Y-91216575D01*
X148123887Y-91216575D02*
X148638173Y-92416575D01*
X140560887Y-59396575D02*
X140960887Y-58825147D01*
X141246601Y-59396575D02*
X141246601Y-58196575D01*
X141246601Y-58196575D02*
X140789458Y-58196575D01*
X140789458Y-58196575D02*
X140675173Y-58253718D01*
X140675173Y-58253718D02*
X140618030Y-58310861D01*
X140618030Y-58310861D02*
X140560887Y-58425147D01*
X140560887Y-58425147D02*
X140560887Y-58596575D01*
X140560887Y-58596575D02*
X140618030Y-58710861D01*
X140618030Y-58710861D02*
X140675173Y-58768004D01*
X140675173Y-58768004D02*
X140789458Y-58825147D01*
X140789458Y-58825147D02*
X141246601Y-58825147D01*
X140046601Y-59396575D02*
X140046601Y-58196575D01*
X140046601Y-58196575D02*
X139760887Y-58196575D01*
X139760887Y-58196575D02*
X139589458Y-58253718D01*
X139589458Y-58253718D02*
X139475173Y-58368004D01*
X139475173Y-58368004D02*
X139418030Y-58482290D01*
X139418030Y-58482290D02*
X139360887Y-58710861D01*
X139360887Y-58710861D02*
X139360887Y-58882290D01*
X139360887Y-58882290D02*
X139418030Y-59110861D01*
X139418030Y-59110861D02*
X139475173Y-59225147D01*
X139475173Y-59225147D02*
X139589458Y-59339433D01*
X139589458Y-59339433D02*
X139760887Y-59396575D01*
X139760887Y-59396575D02*
X140046601Y-59396575D01*
X138618030Y-58825147D02*
X138618030Y-59396575D01*
X139018030Y-58196575D02*
X138618030Y-58825147D01*
X138618030Y-58825147D02*
X138218030Y-58196575D01*
X150009601Y-82256575D02*
X150009601Y-81056575D01*
X150009601Y-81056575D02*
X149723887Y-81056575D01*
X149723887Y-81056575D02*
X149552458Y-81113718D01*
X149552458Y-81113718D02*
X149438173Y-81228004D01*
X149438173Y-81228004D02*
X149381030Y-81342290D01*
X149381030Y-81342290D02*
X149323887Y-81570861D01*
X149323887Y-81570861D02*
X149323887Y-81742290D01*
X149323887Y-81742290D02*
X149381030Y-81970861D01*
X149381030Y-81970861D02*
X149438173Y-82085147D01*
X149438173Y-82085147D02*
X149552458Y-82199433D01*
X149552458Y-82199433D02*
X149723887Y-82256575D01*
X149723887Y-82256575D02*
X150009601Y-82256575D01*
X148923887Y-81056575D02*
X148181030Y-81056575D01*
X148181030Y-81056575D02*
X148581030Y-81513718D01*
X148581030Y-81513718D02*
X148409601Y-81513718D01*
X148409601Y-81513718D02*
X148295316Y-81570861D01*
X148295316Y-81570861D02*
X148238173Y-81628004D01*
X148238173Y-81628004D02*
X148181030Y-81742290D01*
X148181030Y-81742290D02*
X148181030Y-82028004D01*
X148181030Y-82028004D02*
X148238173Y-82142290D01*
X148238173Y-82142290D02*
X148295316Y-82199433D01*
X148295316Y-82199433D02*
X148409601Y-82256575D01*
X148409601Y-82256575D02*
X148752458Y-82256575D01*
X148752458Y-82256575D02*
X148866744Y-82199433D01*
X148866744Y-82199433D02*
X148923887Y-82142290D01*
X139906744Y-97153718D02*
X139335316Y-97153718D01*
X140021030Y-97496575D02*
X139621030Y-96296575D01*
X139621030Y-96296575D02*
X139221030Y-97496575D01*
X138649602Y-96810861D02*
X138763887Y-96753718D01*
X138763887Y-96753718D02*
X138821030Y-96696575D01*
X138821030Y-96696575D02*
X138878173Y-96582290D01*
X138878173Y-96582290D02*
X138878173Y-96525147D01*
X138878173Y-96525147D02*
X138821030Y-96410861D01*
X138821030Y-96410861D02*
X138763887Y-96353718D01*
X138763887Y-96353718D02*
X138649602Y-96296575D01*
X138649602Y-96296575D02*
X138421030Y-96296575D01*
X138421030Y-96296575D02*
X138306745Y-96353718D01*
X138306745Y-96353718D02*
X138249602Y-96410861D01*
X138249602Y-96410861D02*
X138192459Y-96525147D01*
X138192459Y-96525147D02*
X138192459Y-96582290D01*
X138192459Y-96582290D02*
X138249602Y-96696575D01*
X138249602Y-96696575D02*
X138306745Y-96753718D01*
X138306745Y-96753718D02*
X138421030Y-96810861D01*
X138421030Y-96810861D02*
X138649602Y-96810861D01*
X138649602Y-96810861D02*
X138763887Y-96868004D01*
X138763887Y-96868004D02*
X138821030Y-96925147D01*
X138821030Y-96925147D02*
X138878173Y-97039433D01*
X138878173Y-97039433D02*
X138878173Y-97268004D01*
X138878173Y-97268004D02*
X138821030Y-97382290D01*
X138821030Y-97382290D02*
X138763887Y-97439433D01*
X138763887Y-97439433D02*
X138649602Y-97496575D01*
X138649602Y-97496575D02*
X138421030Y-97496575D01*
X138421030Y-97496575D02*
X138306745Y-97439433D01*
X138306745Y-97439433D02*
X138249602Y-97382290D01*
X138249602Y-97382290D02*
X138192459Y-97268004D01*
X138192459Y-97268004D02*
X138192459Y-97039433D01*
X138192459Y-97039433D02*
X138249602Y-96925147D01*
X138249602Y-96925147D02*
X138306745Y-96868004D01*
X138306745Y-96868004D02*
X138421030Y-96810861D01*
X150009601Y-67016575D02*
X150009601Y-65816575D01*
X150009601Y-65816575D02*
X149323887Y-67016575D01*
X149323887Y-67016575D02*
X149323887Y-65816575D01*
X148066744Y-66902290D02*
X148123887Y-66959433D01*
X148123887Y-66959433D02*
X148295315Y-67016575D01*
X148295315Y-67016575D02*
X148409601Y-67016575D01*
X148409601Y-67016575D02*
X148581030Y-66959433D01*
X148581030Y-66959433D02*
X148695315Y-66845147D01*
X148695315Y-66845147D02*
X148752458Y-66730861D01*
X148752458Y-66730861D02*
X148809601Y-66502290D01*
X148809601Y-66502290D02*
X148809601Y-66330861D01*
X148809601Y-66330861D02*
X148752458Y-66102290D01*
X148752458Y-66102290D02*
X148695315Y-65988004D01*
X148695315Y-65988004D02*
X148581030Y-65873718D01*
X148581030Y-65873718D02*
X148409601Y-65816575D01*
X148409601Y-65816575D02*
X148295315Y-65816575D01*
X148295315Y-65816575D02*
X148123887Y-65873718D01*
X148123887Y-65873718D02*
X148066744Y-65930861D01*
X149323887Y-72096575D02*
X149723887Y-71525147D01*
X150009601Y-72096575D02*
X150009601Y-70896575D01*
X150009601Y-70896575D02*
X149552458Y-70896575D01*
X149552458Y-70896575D02*
X149438173Y-70953718D01*
X149438173Y-70953718D02*
X149381030Y-71010861D01*
X149381030Y-71010861D02*
X149323887Y-71125147D01*
X149323887Y-71125147D02*
X149323887Y-71296575D01*
X149323887Y-71296575D02*
X149381030Y-71410861D01*
X149381030Y-71410861D02*
X149438173Y-71468004D01*
X149438173Y-71468004D02*
X149552458Y-71525147D01*
X149552458Y-71525147D02*
X150009601Y-71525147D01*
X147952458Y-70839433D02*
X148981030Y-72382290D01*
X147723887Y-71639433D02*
X147666744Y-71582290D01*
X147666744Y-71582290D02*
X147552458Y-71525147D01*
X147552458Y-71525147D02*
X147323887Y-71639433D01*
X147323887Y-71639433D02*
X147209601Y-71582290D01*
X147209601Y-71582290D02*
X147152458Y-71525147D01*
X146809601Y-70896575D02*
X146523887Y-72096575D01*
X146523887Y-72096575D02*
X146295315Y-71239433D01*
X146295315Y-71239433D02*
X146066744Y-72096575D01*
X146066744Y-72096575D02*
X145781030Y-70896575D01*
X150066744Y-152017718D02*
X149495316Y-152017718D01*
X150181030Y-152360575D02*
X149781030Y-151160575D01*
X149781030Y-151160575D02*
X149381030Y-152360575D01*
X149095316Y-151160575D02*
X148295316Y-151160575D01*
X148295316Y-151160575D02*
X148809602Y-152360575D01*
X150009601Y-132040575D02*
X150009601Y-130840575D01*
X150009601Y-130840575D02*
X149723887Y-130840575D01*
X149723887Y-130840575D02*
X149552458Y-130897718D01*
X149552458Y-130897718D02*
X149438173Y-131012004D01*
X149438173Y-131012004D02*
X149381030Y-131126290D01*
X149381030Y-131126290D02*
X149323887Y-131354861D01*
X149323887Y-131354861D02*
X149323887Y-131526290D01*
X149323887Y-131526290D02*
X149381030Y-131754861D01*
X149381030Y-131754861D02*
X149438173Y-131869147D01*
X149438173Y-131869147D02*
X149552458Y-131983433D01*
X149552458Y-131983433D02*
X149723887Y-132040575D01*
X149723887Y-132040575D02*
X150009601Y-132040575D01*
X148581030Y-130840575D02*
X148466744Y-130840575D01*
X148466744Y-130840575D02*
X148352458Y-130897718D01*
X148352458Y-130897718D02*
X148295316Y-130954861D01*
X148295316Y-130954861D02*
X148238173Y-131069147D01*
X148238173Y-131069147D02*
X148181030Y-131297718D01*
X148181030Y-131297718D02*
X148181030Y-131583433D01*
X148181030Y-131583433D02*
X148238173Y-131812004D01*
X148238173Y-131812004D02*
X148295316Y-131926290D01*
X148295316Y-131926290D02*
X148352458Y-131983433D01*
X148352458Y-131983433D02*
X148466744Y-132040575D01*
X148466744Y-132040575D02*
X148581030Y-132040575D01*
X148581030Y-132040575D02*
X148695316Y-131983433D01*
X148695316Y-131983433D02*
X148752458Y-131926290D01*
X148752458Y-131926290D02*
X148809601Y-131812004D01*
X148809601Y-131812004D02*
X148866744Y-131583433D01*
X148866744Y-131583433D02*
X148866744Y-131297718D01*
X148866744Y-131297718D02*
X148809601Y-131069147D01*
X148809601Y-131069147D02*
X148752458Y-130954861D01*
X148752458Y-130954861D02*
X148695316Y-130897718D01*
X148695316Y-130897718D02*
X148581030Y-130840575D01*
X140668744Y-102233718D02*
X140097316Y-102233718D01*
X140783030Y-102576575D02*
X140383030Y-101376575D01*
X140383030Y-101376575D02*
X139983030Y-102576575D01*
X138954459Y-102576575D02*
X139640173Y-102576575D01*
X139297316Y-102576575D02*
X139297316Y-101376575D01*
X139297316Y-101376575D02*
X139411602Y-101548004D01*
X139411602Y-101548004D02*
X139525887Y-101662290D01*
X139525887Y-101662290D02*
X139640173Y-101719433D01*
X138211602Y-101376575D02*
X138097316Y-101376575D01*
X138097316Y-101376575D02*
X137983030Y-101433718D01*
X137983030Y-101433718D02*
X137925888Y-101490861D01*
X137925888Y-101490861D02*
X137868745Y-101605147D01*
X137868745Y-101605147D02*
X137811602Y-101833718D01*
X137811602Y-101833718D02*
X137811602Y-102119433D01*
X137811602Y-102119433D02*
X137868745Y-102348004D01*
X137868745Y-102348004D02*
X137925888Y-102462290D01*
X137925888Y-102462290D02*
X137983030Y-102519433D01*
X137983030Y-102519433D02*
X138097316Y-102576575D01*
X138097316Y-102576575D02*
X138211602Y-102576575D01*
X138211602Y-102576575D02*
X138325888Y-102519433D01*
X138325888Y-102519433D02*
X138383030Y-102462290D01*
X138383030Y-102462290D02*
X138440173Y-102348004D01*
X138440173Y-102348004D02*
X138497316Y-102119433D01*
X138497316Y-102119433D02*
X138497316Y-101833718D01*
X138497316Y-101833718D02*
X138440173Y-101605147D01*
X138440173Y-101605147D02*
X138383030Y-101490861D01*
X138383030Y-101490861D02*
X138325888Y-101433718D01*
X138325888Y-101433718D02*
X138211602Y-101376575D01*
X150066744Y-61879433D02*
X149895316Y-61936575D01*
X149895316Y-61936575D02*
X149609601Y-61936575D01*
X149609601Y-61936575D02*
X149495316Y-61879433D01*
X149495316Y-61879433D02*
X149438173Y-61822290D01*
X149438173Y-61822290D02*
X149381030Y-61708004D01*
X149381030Y-61708004D02*
X149381030Y-61593718D01*
X149381030Y-61593718D02*
X149438173Y-61479433D01*
X149438173Y-61479433D02*
X149495316Y-61422290D01*
X149495316Y-61422290D02*
X149609601Y-61365147D01*
X149609601Y-61365147D02*
X149838173Y-61308004D01*
X149838173Y-61308004D02*
X149952458Y-61250861D01*
X149952458Y-61250861D02*
X150009601Y-61193718D01*
X150009601Y-61193718D02*
X150066744Y-61079433D01*
X150066744Y-61079433D02*
X150066744Y-60965147D01*
X150066744Y-60965147D02*
X150009601Y-60850861D01*
X150009601Y-60850861D02*
X149952458Y-60793718D01*
X149952458Y-60793718D02*
X149838173Y-60736575D01*
X149838173Y-60736575D02*
X149552458Y-60736575D01*
X149552458Y-60736575D02*
X149381030Y-60793718D01*
X148638173Y-60736575D02*
X148409601Y-60736575D01*
X148409601Y-60736575D02*
X148295316Y-60793718D01*
X148295316Y-60793718D02*
X148181030Y-60908004D01*
X148181030Y-60908004D02*
X148123887Y-61136575D01*
X148123887Y-61136575D02*
X148123887Y-61536575D01*
X148123887Y-61536575D02*
X148181030Y-61765147D01*
X148181030Y-61765147D02*
X148295316Y-61879433D01*
X148295316Y-61879433D02*
X148409601Y-61936575D01*
X148409601Y-61936575D02*
X148638173Y-61936575D01*
X148638173Y-61936575D02*
X148752459Y-61879433D01*
X148752459Y-61879433D02*
X148866744Y-61765147D01*
X148866744Y-61765147D02*
X148923887Y-61536575D01*
X148923887Y-61536575D02*
X148923887Y-61136575D01*
X148923887Y-61136575D02*
X148866744Y-60908004D01*
X148866744Y-60908004D02*
X148752459Y-60793718D01*
X148752459Y-60793718D02*
X148638173Y-60736575D01*
X150009601Y-77176575D02*
X150009601Y-75976575D01*
X150009601Y-75976575D02*
X149723887Y-75976575D01*
X149723887Y-75976575D02*
X149552458Y-76033718D01*
X149552458Y-76033718D02*
X149438173Y-76148004D01*
X149438173Y-76148004D02*
X149381030Y-76262290D01*
X149381030Y-76262290D02*
X149323887Y-76490861D01*
X149323887Y-76490861D02*
X149323887Y-76662290D01*
X149323887Y-76662290D02*
X149381030Y-76890861D01*
X149381030Y-76890861D02*
X149438173Y-77005147D01*
X149438173Y-77005147D02*
X149552458Y-77119433D01*
X149552458Y-77119433D02*
X149723887Y-77176575D01*
X149723887Y-77176575D02*
X150009601Y-77176575D01*
X148181030Y-77176575D02*
X148866744Y-77176575D01*
X148523887Y-77176575D02*
X148523887Y-75976575D01*
X148523887Y-75976575D02*
X148638173Y-76148004D01*
X148638173Y-76148004D02*
X148752458Y-76262290D01*
X148752458Y-76262290D02*
X148866744Y-76319433D01*
X150066744Y-141857718D02*
X149495316Y-141857718D01*
X150181030Y-142200575D02*
X149781030Y-141000575D01*
X149781030Y-141000575D02*
X149381030Y-142200575D01*
X149095316Y-141000575D02*
X148352459Y-141000575D01*
X148352459Y-141000575D02*
X148752459Y-141457718D01*
X148752459Y-141457718D02*
X148581030Y-141457718D01*
X148581030Y-141457718D02*
X148466745Y-141514861D01*
X148466745Y-141514861D02*
X148409602Y-141572004D01*
X148409602Y-141572004D02*
X148352459Y-141686290D01*
X148352459Y-141686290D02*
X148352459Y-141972004D01*
X148352459Y-141972004D02*
X148409602Y-142086290D01*
X148409602Y-142086290D02*
X148466745Y-142143433D01*
X148466745Y-142143433D02*
X148581030Y-142200575D01*
X148581030Y-142200575D02*
X148923887Y-142200575D01*
X148923887Y-142200575D02*
X149038173Y-142143433D01*
X149038173Y-142143433D02*
X149095316Y-142086290D01*
X139906744Y-146937718D02*
X139335316Y-146937718D01*
X140021030Y-147280575D02*
X139621030Y-146080575D01*
X139621030Y-146080575D02*
X139221030Y-147280575D01*
X138763887Y-147280575D02*
X138535316Y-147280575D01*
X138535316Y-147280575D02*
X138421030Y-147223433D01*
X138421030Y-147223433D02*
X138363887Y-147166290D01*
X138363887Y-147166290D02*
X138249602Y-146994861D01*
X138249602Y-146994861D02*
X138192459Y-146766290D01*
X138192459Y-146766290D02*
X138192459Y-146309147D01*
X138192459Y-146309147D02*
X138249602Y-146194861D01*
X138249602Y-146194861D02*
X138306745Y-146137718D01*
X138306745Y-146137718D02*
X138421030Y-146080575D01*
X138421030Y-146080575D02*
X138649602Y-146080575D01*
X138649602Y-146080575D02*
X138763887Y-146137718D01*
X138763887Y-146137718D02*
X138821030Y-146194861D01*
X138821030Y-146194861D02*
X138878173Y-146309147D01*
X138878173Y-146309147D02*
X138878173Y-146594861D01*
X138878173Y-146594861D02*
X138821030Y-146709147D01*
X138821030Y-146709147D02*
X138763887Y-146766290D01*
X138763887Y-146766290D02*
X138649602Y-146823433D01*
X138649602Y-146823433D02*
X138421030Y-146823433D01*
X138421030Y-146823433D02*
X138306745Y-146766290D01*
X138306745Y-146766290D02*
X138249602Y-146709147D01*
X138249602Y-146709147D02*
X138192459Y-146594861D01*
X150009601Y-84796575D02*
X150009601Y-83596575D01*
X150009601Y-83596575D02*
X149723887Y-83596575D01*
X149723887Y-83596575D02*
X149552458Y-83653718D01*
X149552458Y-83653718D02*
X149438173Y-83768004D01*
X149438173Y-83768004D02*
X149381030Y-83882290D01*
X149381030Y-83882290D02*
X149323887Y-84110861D01*
X149323887Y-84110861D02*
X149323887Y-84282290D01*
X149323887Y-84282290D02*
X149381030Y-84510861D01*
X149381030Y-84510861D02*
X149438173Y-84625147D01*
X149438173Y-84625147D02*
X149552458Y-84739433D01*
X149552458Y-84739433D02*
X149723887Y-84796575D01*
X149723887Y-84796575D02*
X150009601Y-84796575D01*
X148295316Y-83996575D02*
X148295316Y-84796575D01*
X148581030Y-83539433D02*
X148866744Y-84396575D01*
X148866744Y-84396575D02*
X148123887Y-84396575D01*
X150009601Y-64476575D02*
X150009601Y-63276575D01*
X150009601Y-63276575D02*
X149552458Y-63276575D01*
X149552458Y-63276575D02*
X149438173Y-63333718D01*
X149438173Y-63333718D02*
X149381030Y-63390861D01*
X149381030Y-63390861D02*
X149323887Y-63505147D01*
X149323887Y-63505147D02*
X149323887Y-63676575D01*
X149323887Y-63676575D02*
X149381030Y-63790861D01*
X149381030Y-63790861D02*
X149438173Y-63848004D01*
X149438173Y-63848004D02*
X149552458Y-63905147D01*
X149552458Y-63905147D02*
X150009601Y-63905147D01*
X148809601Y-64476575D02*
X148809601Y-63276575D01*
X148809601Y-63848004D02*
X148123887Y-63848004D01*
X148123887Y-64476575D02*
X148123887Y-63276575D01*
X147552458Y-64476575D02*
X147552458Y-63276575D01*
X145838172Y-63276575D02*
X145723886Y-63276575D01*
X145723886Y-63276575D02*
X145609600Y-63333718D01*
X145609600Y-63333718D02*
X145552458Y-63390861D01*
X145552458Y-63390861D02*
X145495315Y-63505147D01*
X145495315Y-63505147D02*
X145438172Y-63733718D01*
X145438172Y-63733718D02*
X145438172Y-64019433D01*
X145438172Y-64019433D02*
X145495315Y-64248004D01*
X145495315Y-64248004D02*
X145552458Y-64362290D01*
X145552458Y-64362290D02*
X145609600Y-64419433D01*
X145609600Y-64419433D02*
X145723886Y-64476575D01*
X145723886Y-64476575D02*
X145838172Y-64476575D01*
X145838172Y-64476575D02*
X145952458Y-64419433D01*
X145952458Y-64419433D02*
X146009600Y-64362290D01*
X146009600Y-64362290D02*
X146066743Y-64248004D01*
X146066743Y-64248004D02*
X146123886Y-64019433D01*
X146123886Y-64019433D02*
X146123886Y-63733718D01*
X146123886Y-63733718D02*
X146066743Y-63505147D01*
X146066743Y-63505147D02*
X146009600Y-63390861D01*
X146009600Y-63390861D02*
X145952458Y-63333718D01*
X145952458Y-63333718D02*
X145838172Y-63276575D01*
X139595601Y-132040575D02*
X139595601Y-130840575D01*
X139595601Y-130840575D02*
X139309887Y-130840575D01*
X139309887Y-130840575D02*
X139138458Y-130897718D01*
X139138458Y-130897718D02*
X139024173Y-131012004D01*
X139024173Y-131012004D02*
X138967030Y-131126290D01*
X138967030Y-131126290D02*
X138909887Y-131354861D01*
X138909887Y-131354861D02*
X138909887Y-131526290D01*
X138909887Y-131526290D02*
X138967030Y-131754861D01*
X138967030Y-131754861D02*
X139024173Y-131869147D01*
X139024173Y-131869147D02*
X139138458Y-131983433D01*
X139138458Y-131983433D02*
X139309887Y-132040575D01*
X139309887Y-132040575D02*
X139595601Y-132040575D01*
X137881316Y-130840575D02*
X138109887Y-130840575D01*
X138109887Y-130840575D02*
X138224173Y-130897718D01*
X138224173Y-130897718D02*
X138281316Y-130954861D01*
X138281316Y-130954861D02*
X138395601Y-131126290D01*
X138395601Y-131126290D02*
X138452744Y-131354861D01*
X138452744Y-131354861D02*
X138452744Y-131812004D01*
X138452744Y-131812004D02*
X138395601Y-131926290D01*
X138395601Y-131926290D02*
X138338458Y-131983433D01*
X138338458Y-131983433D02*
X138224173Y-132040575D01*
X138224173Y-132040575D02*
X137995601Y-132040575D01*
X137995601Y-132040575D02*
X137881316Y-131983433D01*
X137881316Y-131983433D02*
X137824173Y-131926290D01*
X137824173Y-131926290D02*
X137767030Y-131812004D01*
X137767030Y-131812004D02*
X137767030Y-131526290D01*
X137767030Y-131526290D02*
X137824173Y-131412004D01*
X137824173Y-131412004D02*
X137881316Y-131354861D01*
X137881316Y-131354861D02*
X137995601Y-131297718D01*
X137995601Y-131297718D02*
X138224173Y-131297718D01*
X138224173Y-131297718D02*
X138338458Y-131354861D01*
X138338458Y-131354861D02*
X138395601Y-131412004D01*
X138395601Y-131412004D02*
X138452744Y-131526290D01*
X150066744Y-139190718D02*
X149495316Y-139190718D01*
X150181030Y-139533575D02*
X149781030Y-138333575D01*
X149781030Y-138333575D02*
X149381030Y-139533575D01*
X149038173Y-138447861D02*
X148981030Y-138390718D01*
X148981030Y-138390718D02*
X148866745Y-138333575D01*
X148866745Y-138333575D02*
X148581030Y-138333575D01*
X148581030Y-138333575D02*
X148466745Y-138390718D01*
X148466745Y-138390718D02*
X148409602Y-138447861D01*
X148409602Y-138447861D02*
X148352459Y-138562147D01*
X148352459Y-138562147D02*
X148352459Y-138676433D01*
X148352459Y-138676433D02*
X148409602Y-138847861D01*
X148409602Y-138847861D02*
X149095316Y-139533575D01*
X149095316Y-139533575D02*
X148352459Y-139533575D01*
X150066744Y-136777718D02*
X149495316Y-136777718D01*
X150181030Y-137120575D02*
X149781030Y-135920575D01*
X149781030Y-135920575D02*
X149381030Y-137120575D01*
X148352459Y-137120575D02*
X149038173Y-137120575D01*
X148695316Y-137120575D02*
X148695316Y-135920575D01*
X148695316Y-135920575D02*
X148809602Y-136092004D01*
X148809602Y-136092004D02*
X148923887Y-136206290D01*
X148923887Y-136206290D02*
X149038173Y-136263433D01*
X150009601Y-79716575D02*
X150009601Y-78516575D01*
X150009601Y-78516575D02*
X149723887Y-78516575D01*
X149723887Y-78516575D02*
X149552458Y-78573718D01*
X149552458Y-78573718D02*
X149438173Y-78688004D01*
X149438173Y-78688004D02*
X149381030Y-78802290D01*
X149381030Y-78802290D02*
X149323887Y-79030861D01*
X149323887Y-79030861D02*
X149323887Y-79202290D01*
X149323887Y-79202290D02*
X149381030Y-79430861D01*
X149381030Y-79430861D02*
X149438173Y-79545147D01*
X149438173Y-79545147D02*
X149552458Y-79659433D01*
X149552458Y-79659433D02*
X149723887Y-79716575D01*
X149723887Y-79716575D02*
X150009601Y-79716575D01*
X148866744Y-78630861D02*
X148809601Y-78573718D01*
X148809601Y-78573718D02*
X148695316Y-78516575D01*
X148695316Y-78516575D02*
X148409601Y-78516575D01*
X148409601Y-78516575D02*
X148295316Y-78573718D01*
X148295316Y-78573718D02*
X148238173Y-78630861D01*
X148238173Y-78630861D02*
X148181030Y-78745147D01*
X148181030Y-78745147D02*
X148181030Y-78859433D01*
X148181030Y-78859433D02*
X148238173Y-79030861D01*
X148238173Y-79030861D02*
X148923887Y-79716575D01*
X148923887Y-79716575D02*
X148181030Y-79716575D01*
X150066744Y-99693718D02*
X149495316Y-99693718D01*
X150181030Y-100036575D02*
X149781030Y-98836575D01*
X149781030Y-98836575D02*
X149381030Y-100036575D01*
X148352459Y-100036575D02*
X149038173Y-100036575D01*
X148695316Y-100036575D02*
X148695316Y-98836575D01*
X148695316Y-98836575D02*
X148809602Y-99008004D01*
X148809602Y-99008004D02*
X148923887Y-99122290D01*
X148923887Y-99122290D02*
X149038173Y-99179433D01*
X147952459Y-98836575D02*
X147209602Y-98836575D01*
X147209602Y-98836575D02*
X147609602Y-99293718D01*
X147609602Y-99293718D02*
X147438173Y-99293718D01*
X147438173Y-99293718D02*
X147323888Y-99350861D01*
X147323888Y-99350861D02*
X147266745Y-99408004D01*
X147266745Y-99408004D02*
X147209602Y-99522290D01*
X147209602Y-99522290D02*
X147209602Y-99808004D01*
X147209602Y-99808004D02*
X147266745Y-99922290D01*
X147266745Y-99922290D02*
X147323888Y-99979433D01*
X147323888Y-99979433D02*
X147438173Y-100036575D01*
X147438173Y-100036575D02*
X147781030Y-100036575D01*
X147781030Y-100036575D02*
X147895316Y-99979433D01*
X147895316Y-99979433D02*
X147952459Y-99922290D01*
X150009601Y-87336575D02*
X150009601Y-86136575D01*
X150009601Y-86136575D02*
X149723887Y-86136575D01*
X149723887Y-86136575D02*
X149552458Y-86193718D01*
X149552458Y-86193718D02*
X149438173Y-86308004D01*
X149438173Y-86308004D02*
X149381030Y-86422290D01*
X149381030Y-86422290D02*
X149323887Y-86650861D01*
X149323887Y-86650861D02*
X149323887Y-86822290D01*
X149323887Y-86822290D02*
X149381030Y-87050861D01*
X149381030Y-87050861D02*
X149438173Y-87165147D01*
X149438173Y-87165147D02*
X149552458Y-87279433D01*
X149552458Y-87279433D02*
X149723887Y-87336575D01*
X149723887Y-87336575D02*
X150009601Y-87336575D01*
X148238173Y-86136575D02*
X148809601Y-86136575D01*
X148809601Y-86136575D02*
X148866744Y-86708004D01*
X148866744Y-86708004D02*
X148809601Y-86650861D01*
X148809601Y-86650861D02*
X148695316Y-86593718D01*
X148695316Y-86593718D02*
X148409601Y-86593718D01*
X148409601Y-86593718D02*
X148295316Y-86650861D01*
X148295316Y-86650861D02*
X148238173Y-86708004D01*
X148238173Y-86708004D02*
X148181030Y-86822290D01*
X148181030Y-86822290D02*
X148181030Y-87108004D01*
X148181030Y-87108004D02*
X148238173Y-87222290D01*
X148238173Y-87222290D02*
X148295316Y-87279433D01*
X148295316Y-87279433D02*
X148409601Y-87336575D01*
X148409601Y-87336575D02*
X148695316Y-87336575D01*
X148695316Y-87336575D02*
X148809601Y-87279433D01*
X148809601Y-87279433D02*
X148866744Y-87222290D01*
X139906744Y-81913718D02*
X139335316Y-81913718D01*
X140021030Y-82256575D02*
X139621030Y-81056575D01*
X139621030Y-81056575D02*
X139221030Y-82256575D01*
X138878173Y-81170861D02*
X138821030Y-81113718D01*
X138821030Y-81113718D02*
X138706745Y-81056575D01*
X138706745Y-81056575D02*
X138421030Y-81056575D01*
X138421030Y-81056575D02*
X138306745Y-81113718D01*
X138306745Y-81113718D02*
X138249602Y-81170861D01*
X138249602Y-81170861D02*
X138192459Y-81285147D01*
X138192459Y-81285147D02*
X138192459Y-81399433D01*
X138192459Y-81399433D02*
X138249602Y-81570861D01*
X138249602Y-81570861D02*
X138935316Y-82256575D01*
X138935316Y-82256575D02*
X138192459Y-82256575D01*
X140668744Y-139317718D02*
X140097316Y-139317718D01*
X140783030Y-139660575D02*
X140383030Y-138460575D01*
X140383030Y-138460575D02*
X139983030Y-139660575D01*
X138954459Y-139660575D02*
X139640173Y-139660575D01*
X139297316Y-139660575D02*
X139297316Y-138460575D01*
X139297316Y-138460575D02*
X139411602Y-138632004D01*
X139411602Y-138632004D02*
X139525887Y-138746290D01*
X139525887Y-138746290D02*
X139640173Y-138803433D01*
X138211602Y-138460575D02*
X138097316Y-138460575D01*
X138097316Y-138460575D02*
X137983030Y-138517718D01*
X137983030Y-138517718D02*
X137925888Y-138574861D01*
X137925888Y-138574861D02*
X137868745Y-138689147D01*
X137868745Y-138689147D02*
X137811602Y-138917718D01*
X137811602Y-138917718D02*
X137811602Y-139203433D01*
X137811602Y-139203433D02*
X137868745Y-139432004D01*
X137868745Y-139432004D02*
X137925888Y-139546290D01*
X137925888Y-139546290D02*
X137983030Y-139603433D01*
X137983030Y-139603433D02*
X138097316Y-139660575D01*
X138097316Y-139660575D02*
X138211602Y-139660575D01*
X138211602Y-139660575D02*
X138325888Y-139603433D01*
X138325888Y-139603433D02*
X138383030Y-139546290D01*
X138383030Y-139546290D02*
X138440173Y-139432004D01*
X138440173Y-139432004D02*
X138497316Y-139203433D01*
X138497316Y-139203433D02*
X138497316Y-138917718D01*
X138497316Y-138917718D02*
X138440173Y-138689147D01*
X138440173Y-138689147D02*
X138383030Y-138574861D01*
X138383030Y-138574861D02*
X138325888Y-138517718D01*
X138325888Y-138517718D02*
X138211602Y-138460575D01*
X141732030Y-69109433D02*
X141674887Y-69052290D01*
X141674887Y-69052290D02*
X141560601Y-68995147D01*
X141560601Y-68995147D02*
X141332030Y-69109433D01*
X141332030Y-69109433D02*
X141217744Y-69052290D01*
X141217744Y-69052290D02*
X141160601Y-68995147D01*
X140703458Y-69566575D02*
X140703458Y-68366575D01*
X140703458Y-68366575D02*
X140017744Y-69566575D01*
X140017744Y-69566575D02*
X140017744Y-68366575D01*
X139446315Y-69566575D02*
X139446315Y-68366575D01*
X139446315Y-68366575D02*
X139046315Y-69223718D01*
X139046315Y-69223718D02*
X138646315Y-68366575D01*
X138646315Y-68366575D02*
X138646315Y-69566575D01*
X138074886Y-69566575D02*
X138074886Y-68366575D01*
X150066744Y-97153718D02*
X149495316Y-97153718D01*
X150181030Y-97496575D02*
X149781030Y-96296575D01*
X149781030Y-96296575D02*
X149381030Y-97496575D01*
X148352459Y-97496575D02*
X149038173Y-97496575D01*
X148695316Y-97496575D02*
X148695316Y-96296575D01*
X148695316Y-96296575D02*
X148809602Y-96468004D01*
X148809602Y-96468004D02*
X148923887Y-96582290D01*
X148923887Y-96582290D02*
X149038173Y-96639433D01*
X147323888Y-96696575D02*
X147323888Y-97496575D01*
X147609602Y-96239433D02*
X147895316Y-97096575D01*
X147895316Y-97096575D02*
X147152459Y-97096575D01*
X150066744Y-146937718D02*
X149495316Y-146937718D01*
X150181030Y-147280575D02*
X149781030Y-146080575D01*
X149781030Y-146080575D02*
X149381030Y-147280575D01*
X148409602Y-146080575D02*
X148981030Y-146080575D01*
X148981030Y-146080575D02*
X149038173Y-146652004D01*
X149038173Y-146652004D02*
X148981030Y-146594861D01*
X148981030Y-146594861D02*
X148866745Y-146537718D01*
X148866745Y-146537718D02*
X148581030Y-146537718D01*
X148581030Y-146537718D02*
X148466745Y-146594861D01*
X148466745Y-146594861D02*
X148409602Y-146652004D01*
X148409602Y-146652004D02*
X148352459Y-146766290D01*
X148352459Y-146766290D02*
X148352459Y-147052004D01*
X148352459Y-147052004D02*
X148409602Y-147166290D01*
X148409602Y-147166290D02*
X148466745Y-147223433D01*
X148466745Y-147223433D02*
X148581030Y-147280575D01*
X148581030Y-147280575D02*
X148866745Y-147280575D01*
X148866745Y-147280575D02*
X148981030Y-147223433D01*
X148981030Y-147223433D02*
X149038173Y-147166290D01*
X150066744Y-94613718D02*
X149495316Y-94613718D01*
X150181030Y-94956575D02*
X149781030Y-93756575D01*
X149781030Y-93756575D02*
X149381030Y-94956575D01*
X148352459Y-94956575D02*
X149038173Y-94956575D01*
X148695316Y-94956575D02*
X148695316Y-93756575D01*
X148695316Y-93756575D02*
X148809602Y-93928004D01*
X148809602Y-93928004D02*
X148923887Y-94042290D01*
X148923887Y-94042290D02*
X149038173Y-94099433D01*
X147266745Y-93756575D02*
X147838173Y-93756575D01*
X147838173Y-93756575D02*
X147895316Y-94328004D01*
X147895316Y-94328004D02*
X147838173Y-94270861D01*
X147838173Y-94270861D02*
X147723888Y-94213718D01*
X147723888Y-94213718D02*
X147438173Y-94213718D01*
X147438173Y-94213718D02*
X147323888Y-94270861D01*
X147323888Y-94270861D02*
X147266745Y-94328004D01*
X147266745Y-94328004D02*
X147209602Y-94442290D01*
X147209602Y-94442290D02*
X147209602Y-94728004D01*
X147209602Y-94728004D02*
X147266745Y-94842290D01*
X147266745Y-94842290D02*
X147323888Y-94899433D01*
X147323888Y-94899433D02*
X147438173Y-94956575D01*
X147438173Y-94956575D02*
X147723888Y-94956575D01*
X147723888Y-94956575D02*
X147838173Y-94899433D01*
X147838173Y-94899433D02*
X147895316Y-94842290D01*
M02*
